<?xml version="1.0" encoding="utf-8"?>
<!-- Generator: Adobe Illustrator 26.5.0, SVG Export Plug-In . SVG Version: 6.00 Build 0)  -->
<svg version="1.1" id="Layer_1" xmlns="http://www.w3.org/2000/svg" xmlns:xlink="http://www.w3.org/1999/xlink" x="0px" y="0px"
	 viewBox="0 0 978 457.89" style="enable-background:new 0 0 978 457.89;" xml:space="preserve">
<style type="text/css">
	.st0{fill:#DDD5C1;}
	.st1{fill:#DA1F26;stroke:#DA1F26;stroke-width:2.1962;stroke-miterlimit:10;}
	.st2{fill:#2C3E99;stroke:#2C3E99;stroke-width:2.1962;stroke-miterlimit:10;}
	.st3{fill:#F0C11A;stroke:#F0C11A;stroke-width:2.1962;stroke-miterlimit:10;}
	.st4{fill:#B64A9B;stroke:#B64A9B;stroke-width:2.1962;stroke-miterlimit:10;}
</style>
<rect class="st0" width="978" height="457.89"/>
<path d="M605.41,182.54c-7.67,1.42-15.33,2.83-22.98,4.25c-0.02,0.31-0.04,0.62-0.06,0.93c1.24,0.56,2.47,1.11,3.71,1.68
	c0.75,0.34,1.61,0.57,2.2,1.09c0.45,0.41,0.55,1.21,0.81,1.84c-0.61,0.08-1.26,0.35-1.82,0.21c-1.94-0.47-3.89-0.95-5.75-1.65
	c-6.32-2.39-12.68-2.17-19.14-0.67c-3.15,0.73-6.44,0.95-9.52,1.9c-2.22,0.69-4.25,2.1-6.26,3.37c-2.31,1.45-4.05,1.12-5.66-1.32
	c-1.24-1.88-0.65-4.15,1.41-5.3c0.36-0.2,0.8-0.48,1.15-0.42c3.04,0.55,3.57-1.48,4.43-3.74c2.96-7.75,6.22-15.39,9.29-23.11
	c0.79-1.97,1.85-4.14-0.19-5.99c-0.54-0.49-1.7-0.83-2.33-0.59c-6.22,2.36-10.19,6.9-12.17,13.2c-0.95,3.03-2.4,5.87-1.63,9.37
	c0.57,2.6-1.78,5.07-4.14,5.34c-2.18,0.25-4.14-1.13-4.44-3.45c-0.14-1.07-0.02-2.62,0.65-3.25c1.4-1.33,1.07-2.28,0.21-3.62
	c-4.69-7.27-8.39-15-11.32-23.18c-1.13-3.16-3.73-5.8-5.64-8.68c-1.11-1.68-2.19-3.38-3.29-5.07c-0.32,0.05-0.65,0.1-0.97,0.14
	c-0.45,1.35-1.06,2.67-1.33,4.05c-0.94,4.89-1.82,9.8-2.59,14.73c-0.21,1.32,0.22,2.73,0.07,4.07c-0.17,1.5-0.2,3.52-1.13,4.28
	c-0.94,0.76-3.64,0.9-4.31,0.16c-3.47-3.81-8.32-2.84-12.48-4.11c-2.14-0.65-4.35-1.1-6.57-1.43c-1.18-0.18-2.42,0.18-3.64,0.15
	c-1.74-0.04-3.9,0.39-5.13-0.46c-2.09-1.46-4.34-1.85-6.62-2.44c-6.19-1.6-12.36-3.24-18.55-4.83c-1.1-0.28-2.25-0.41-3.72-0.15
	c0.46,0.57,0.82,1.26,1.39,1.69c5.49,4.15,11.02,8.24,16.52,12.37c6.3,4.73,12.57,9.49,18.86,14.22c1.99,1.5,4.01,2.96,6,4.47
	c1.52,1.16,2.82,2.32,5.05,1.03c0.83-0.48,3.21,0.13,3.64,0.92c0.82,1.53,1.68,3.51,0.03,5.33c-1.36,1.5-2.96,1.86-4.73,1.16
	c-0.98-0.39-2.07-1-2.63-1.83c-1.39-2.07-3.47-2.41-5.61-2.74c-12.63-1.93-23.95-7.1-34.76-13.7c-4.87-2.97-9.42-6.29-13.18-10.51
	c-8.81-9.87-8.69-23.62,2.24-32.55c1.33-1.08,3.03-1.78,4.15-3.03c0.66-0.73,1.07-2.44,0.67-3.26c-1.09-2.2-2.68-4.16-4.06-6.22
	c-5.97-8.99-11.89-18-17.96-26.93c-0.7-1.03-2.1-1.91-3.33-2.2c-3.08-0.73-4.46-1.97-4.44-4.7c0.01-1.6,2.28-4.04,4.41-4.13
	c1.88-0.08,2.74-1.17,3.86-2.3c8.99-9.08,17.99-18.15,27.05-27.16c4.44-4.41,9-8.7,13.32-13.51c-2.29,0.48-4.59,0.96-6.88,1.45
	c-6.66,1.45-13.34,2.81-19.97,4.41c-2.72,0.66-5.5,1.19-6.88,4.51c-1.17,2.8-4.25,2.5-6.17,0.11c-0.75-0.93-2.37-1.13-3.51-1.8
	c-0.74-0.43-1.34-1.12-2-1.69c0.81-0.28,1.61-0.61,2.44-0.82c0.89-0.23,2.11-0.05,2.66-0.58c1.76-1.73,3.67-1.54,5.8-1.12
	c1.34,0.26,2.76,0.23,4.13,0.15c0.39-0.02,1.05-0.68,1.04-1.03c-0.02-0.57-0.37-1.51-0.78-1.63c-3.38-1.04-6.8-1.92-10.56-2.94
	c0.2,1.12,0.33,1.84,0.47,2.62c-1.79-0.4-4.87-3.54-4.97-5.06c-0.12-1.93,1.07-2.01,2.47-1.58c3.96,1.22,7.9,2.48,11.86,3.72
	c0.6,0.19,1.23,0.29,1.93,0.45c0.3-1.26,0.56-2.32,0.81-3.37c0.35-0.01,0.71-0.03,1.06-0.04c0.21,1.75,0.66,3.51,0.57,5.24
	c-0.1,1.96,0.3,2.49,2.35,2.06c7.41-1.54,14.88-2.82,22.28-4.4c1.1-0.23,2.28-1.33,2.88-2.34c1.22-2.06,3.23-3.16,5.5-2.56
	c2.21,0.59,2.43,2.28,2.3,4.12c-0.16,2.36-1.92,4.68-3.94,4.35c-3.09-0.5-4.69,1.14-6.51,3.04c-5.82,6.05-11.72,12.02-17.63,17.99
	c-6.67,6.74-13.39,13.41-20.02,20.19c-0.61,0.62-0.69,1.79-0.92,2.73c-0.1,0.38,0.21,0.9,0.05,1.22c-1.39,2.87,0.69,4.63,2.06,6.61
	c5.34,7.7,10.71,15.38,16.01,23.1c1.64,2.39,3.11,4.9,4.61,7.38c0.7,1.16,1.47,1.76,3,1.6c2.37-0.24,4.05,1.34,4.21,3.57
	c0.12,1.73-1.6,3.33-3.82,3.48c-0.83,0.06-1.79,0.23-2.47-0.1c-1.92-0.94-3.48-0.32-4.71,1.01c-3.43,3.69-7.19,7.17-8.07,12.55
	c-1.13,6.95,1.09,12.7,5.84,17.73c6.88,7.27,15.45,12,24.32,16.24c7.19,3.43,14.67,6.15,22.51,7.79c0.3,0.06,0.62,0.01,1.66,0.01
	c-1.07-1.19-1.66-2.11-2.48-2.73c-5.32-3.98-10.72-7.85-16.04-11.82c-7.62-5.69-15.23-11.39-22.76-17.2c-1.68-1.3-3-2.74-5.47-2.66
	c-1.79,0.06-2.55-1.63-2.64-3.38c-0.12-2.21,1.33-3.69,3.09-3.95c1.35-0.2,3.98,0.7,4.2,1.58c1.06,4.2,4.7,3.76,7.46,4.5
	c6.01,1.61,12.14,2.75,18.2,4.19c1.43,0.34,2.32,0.27,3.47-0.93c0.87-0.9,2.76-1.48,3.97-1.2c1.15,0.27,2,1.83,2.99,2.82
	c0.52,0.52,0.96,1.25,1.59,1.5c0.99,0.39,2.11,0.44,3.17,0.63c3,0.55,6.17,0.67,8.97,1.74c4.04,1.53,6.71-1.28,9.9-2.4
	c0.59-0.21,0.96-1.49,1.15-2.34c1.07-4.77,2.28-9.53,2.95-14.36c0.27-1.98-0.52-4.18-1.13-6.19c-0.6-1.97-0.01-3.5,1.65-4.15
	c1.22-0.48,3.1-0.53,4.15,0.1c1.54,0.93,2.39,2.64,1.78,4.77c-0.25,0.87-0.1,2.15,0.39,2.9c4.73,7.24,9.01,14.67,12.23,22.75
	c1.86,4.68,4.48,9.07,6.96,13.48c0.6,1.08,2,1.71,3.17,2.66c1.02-3.22,1.88-5.87,2.69-8.54c2.17-7.07,7.3-11.21,13.74-14.17
	c1.85-0.85,3.46-2.22,5.2-3.31c2.01-1.26,3.64-0.62,5.03,1.07c1.38,1.69,0.75,3.32-0.39,4.74c-0.86,1.07-2.22,1.76-3.01,2.86
	c-1.03,1.43-1.86,3.05-2.54,4.68c-2.61,6.2-5.14,12.42-7.68,18.65c-0.97,2.38-1.88,4.77-2.77,7.18c-0.72,1.96,0.56,2.23,1.96,2
	c4.68-0.76,9.35-1.62,14.02-2.46c1.55-0.28,3.16-0.42,4.64-0.93c3.09-1.07,6.26-2.07,9.1-3.63c2.58-1.42,4.74-3.6,7.15-5.35
	c0.92-0.67,2.01-1.08,3.03-1.62c0.22,0.28,0.43,0.57,0.65,0.85c-2.53,2.52-5.06,5.04-7.59,7.56c0.08,0.16,0.16,0.32,0.24,0.49
	c5.03-1.02,10.06-2.05,15.1-3.04c1.96-0.39,3.97-0.54,5.88-1.08c1.97-0.56,3.85-1.42,5.75-2.21c2.21-0.92,4.15-0.52,5.28,1.19
	c1.22,1.84,0.99,4.12-1.01,5.52c-1.99,1.4-2.88,3.08-3.41,5.44c-2.67,12.01-5.54,23.98-8.43,35.94c-0.18,0.73-1.13,1.27-1.72,1.9
	c-0.31-0.99-1.05-2.07-0.85-2.95c1.67-7.46,3.47-14.9,5.32-22.32c1.14-4.6,2.5-9.14,3.56-13.75c0.26-1.15-0.18-2.5-0.48-3.71
	C606.53,184.91,606.01,183.97,605.41,182.54z"/>
<path d="M238.49,63.8c-2.48,1.03-4.23,1.73-5.97,0.24c-5.3-4.51-11.9-5.39-18.37-6.16c-2.56-0.31-5.36,0.79-7.96,1.57
	c-8.35,2.5-16.66,5.14-24.98,7.74c-1.41,0.44-2.81,0.94-4.4,1.47c0.33,0.71,0.45,1.32,0.81,1.69c3.71,3.79,7.44,7.57,11.23,11.29
	c0.38,0.37,1.2,0.25,1.77,0.48c1.19,0.48,2.6,0.78,3.46,1.62c3.23,3.17,2.77,4.14-0.06,7.62c-2.36,2.89-3.57,6.69-5.63,9.87
	c-2.91,4.5-6.01,8.89-9.26,13.15c-5.51,7.23-13.67,10.82-21.38,14.95c-2.67,1.43-5.94,1.73-8.6,3.18
	c-5.93,3.24-12.11,1.64-18.18,1.37c-3.58-0.16-7.12-1.24-10.69-1.81c-0.52-0.08-1.27,0.25-1.68,0.63c-2.14,2.05-5.05,2.14-7.29,0.3
	c-0.54-0.45-1.52-0.64-2.24-0.55c-1.89,0.23-3.74,0.73-5.62,1.03c-7.62,1.25-15.25,2.4-22.85,3.73c-4.8,0.84-9.54,2.03-14.34,2.9
	c-2.69,0.49-5.5,0.37-8.12,1.04c-1.89,0.48-3.64,1.7-5.28,2.84c-0.33,0.23-0.12,1.7,0.25,2.39c2.4,4.54,4.91,9.01,7.39,13.51
	c0.2,0.36,0.32,0.81,0.61,1.07c0.39,0.36,0.99,0.86,1.36,0.77c0.37-0.09,0.76-0.81,0.84-1.31c0.3-1.74,0.47-3.51,0.7-5.27
	c0.36-0.05,0.73-0.1,1.09-0.16c0.5,1.45,1.29,2.87,1.45,4.36c0.73,7,2.14,13.85,5.13,20.22c2.32,4.94,5.08,9.68,7.72,14.48
	c0.21,0.38,0.91,0.59,1.42,0.67c0.56,0.09,1.16-0.13,1.74-0.12c3.03,0.09,4.02,1.16,3.96,4.26c-0.05,2.9-1.56,4.61-4.11,4.65
	c-2.26,0.03-3.99-2.17-4.6-4.4c-0.75-2.71-2.14-5.27-3.44-7.8c-1.97-3.84-3.9-7.73-6.2-11.37c-1.61-2.54-3.51-5.07-5.81-6.96
	c-2.9-2.39-6.36-4.11-9.55-6.17c-1.29-0.83-2.29-2.06-1.28-3.47c0.3-0.41,2.13,0.09,3.17,0.45c1.59,0.54,3.1,1.32,5.38,2.32
	c-0.33-1.53-0.33-2.26-0.63-2.83c-2.76-5.2-5.53-10.39-8.4-15.53c-0.57-1.02-1.46-2.03-2.45-2.61c-2.07-1.23-2.9-3.09-2.01-5.74
	c0.66-1.97,2.73-2.63,4.06-1.93c4.58,2.43,8.92,0.43,13.28-0.24c9.51-1.47,18.98-3.27,28.47-4.88c5.54-0.94,11.09-1.79,16.64-2.68
	c0.56-3.66,1.13-3.98,4.97-3.92c2.34,0.03,4.28,0.12,5.06,2.88c0.18,0.63,1.38,1.31,2.15,1.36c5.27,0.37,10.55,0.59,15.83,0.84
	c1.07,0.05,2.14,0.01,3.21,0.01c0.91,0,1.93,0.27,2.72-0.03c6.69-2.58,14.03-3.44,20.12-7.62c3.66-2.51,7.65-4.61,11.04-7.44
	c2.21-1.85,3.7-4.62,5.35-7.09c3.16-4.75,6.24-9.57,9.26-14.41c0.41-0.65,0.5-1.71,0.31-2.48c-0.59-2.39-1.08-4.89-2.2-7.04
	c-1.12-2.16-2.9-3.99-4.49-5.88c-2.28-2.7-4.57-5.41-7.04-7.94c-0.68-0.69-2.18-1.28-3-1c-2.65,0.89-5.17,2.2-7.73,3.37
	c-0.29,0.13-0.78,0.43-0.76,0.59c0.47,2.94-2.23,3.14-3.69,4.45c-0.46,0.41-0.54,1.34-0.62,2.05c-0.99,8.57-1.98,17.13-2.85,25.71
	c-0.1,0.99,0.68,2.03,0.84,3.08c0.32,2.05,1.11,4.3,0.59,6.16c-0.78,2.79-4.24,3.11-6.22,0.74c-1.42-1.7-2.92-2.37-5.14-2.28
	c-2.98,0.13-5.98-0.1-8.97-0.28c-1.97-0.12-3.82-0.67-5.12,1.73c-0.72,1.33-5.37,0.79-6.47-0.45c-1.37-1.55-1.06-4.91,0.42-6.32
	c0.58-0.55,1.09-1.46,1.15-2.25c0.24-3.23,0.21-6.48,0.44-9.71c0.45-6.3,1.16-12.58,1.43-18.88c0.09-2.13-0.54-4.42-1.35-6.43
	c-1.07-2.63-1.15-5.05,0.57-7c0.47-0.53,1.29-1.29,1.77-1.18c2.28,0.53,2.94-1.1,3.94-2.49c3.36-4.71,7.73-8.32,13.58-8.75
	c3.58-0.26,7.31,0.86,10.9,1.7c1.21,0.28,2.02,0.83,3.37,0.08c2.75-1.52,6.04,0.93,6.1,4.33c0.05,2.64,3.65,8.2,6.05,8.58
	c1.49,0.24,3.2-0.47,4.74-0.98c7.94-2.63,15.79-5.52,23.79-7.94c6.97-2.11,12.78-5.8,17.71-11.08c0.92-0.98,2.31-1.53,3.48-2.28
	c-0.38,1.24-0.69,2.5-1.18,3.7c-0.31,0.75-0.96,1.36-1.33,2.1c-0.26,0.52-0.28,1.16-0.41,1.74c0.62,0.02,1.29,0.2,1.85,0.03
	c13.96-4.32,27.89-8.73,41.87-12.96c1.97-0.6,3.55-1.03,4.58-3.09c1.03-2.06,3.76-2.12,5.91-0.74c1.33,0.86,2.87,1.39,4.29,2.13
	c0.4,0.21,1.02,0.68,0.97,0.89c-0.11,0.46-0.52,0.94-0.93,1.23c-1.35,0.93-2.83,1.68-4.12,2.69c-2.21,1.72-4.14,1.67-5.76-0.63
	c-0.92-1.31-1.68-1.32-3.1-0.85c-8.05,2.63-16.15,5.12-24.24,7.63c-5.79,1.8-11.6,3.54-17.38,5.39c-0.67,0.22-1.18,0.96-1.76,1.46
	c0.51,0.48,0.94,1.11,1.54,1.42c3.49,1.79,7.04,3.46,10.53,5.26C236.49,62.01,237.23,62.8,238.49,63.8z M151.39,54.37
	c-6.27-0.45-10.43,3.52-14.4,7.77c-0.38,0.41-0.43,1.43-0.23,2.04c1.61,4.91,1.19,5.99-3.04,8.94c-0.84,0.58-1.53,1.88-1.62,2.91
	c-0.23,2.46,0.08,4.96-0.07,7.43c-0.41,6.96-0.93,13.92-1.41,20.88c-0.09,1.24,2.48,5.91,3.53,6.35c0.15,0.06,0.32,0.08,0.49,0.09
	c4.79,0.24,9.59,0.52,14.38,0.69c1.97,0.07,4.63-2.55,4.87-4.52c0.91-7.4,1.99-14.79,2.71-22.21c0.31-3.25,1.57-6.49-0.42-9.9
	c-1.35-2.31,0.05-4.3,2.76-5.04c1.17-0.32,2.46-0.19,3.68-0.35c1.7-0.23,3.45-0.36,5.08-0.86c1.9-0.58,2.21-1.78,1.22-3.68
	c-0.88-1.71-1.98-2.38-3.81-2.52c-3.19-0.25-5.8-1.82-5.72-3.85c0.14-3.54-2.47-3.37-4.55-3.94
	C153.82,54.3,152.69,54.44,151.39,54.37z"/>
<path d="M630.38,331.45c2.48-1.86,4.79-4.01,7.46-5.54c8.21-4.72,16.34-9.69,24.93-13.6c5.64-2.56,10.14-6.82,15.83-9.13
	c0.73-0.29,1.25-1.21,1.74-1.93c0.69-1.02,1.05-2.39,1.94-3.13c0.83-0.7,2.29-1.22,3.26-0.98c0.75,0.18,1.42,1.6,1.7,2.59
	c0.43,1.58,0.52,3.26,0.71,4.9c0.04,0.3-0.04,0.86-0.18,0.91c-3.22,1-1.67,3.51-1.65,5.42c0.08,8.49,0.29,16.98,0.42,25.47
	c0.16,10.4,0.28,20.79,0.41,31.19c0.01,0.79,0,1.59,0,2.38c7.74-2.43,15.19-4.71,22.59-7.15c1.14-0.38,2.01-1.56,3.04-2.33
	c1.28-0.94,2.49-2.24,3.93-2.62c1.11-0.29,3.29,0.26,3.64,1.04c0.58,1.3,0.63,3.43-0.09,4.59c-1.08,1.72-1.02,2.67,0.02,4.37
	c1.32,2.15,2.04,4.69,2.94,7.09c1.3,3.45,3.78,3.93,6.36,1.29c4.62-4.74,9.5-9.25,13.88-14.2c2.48-2.81,4.32-6.25,6.18-9.55
	c1.28-2.28,2.03-4.84,3.15-7.21c0.22-0.47,1.05-0.66,1.59-0.97c0.22,0.53,0.65,1.06,0.64,1.58c-0.05,1.77-0.25,3.54,0.18,5.57
	c1.16-1,2.36-1.95,3.46-3.01c4.96-4.79,9.87-9.64,14.83-14.43c1.86-1.8,1.82-2.9-0.68-3.69c-3.62-1.14-7.34-1.97-11.05-2.77
	c-0.68-0.15-1.57,0.33-2.28,0.69c-2.51,1.26-4.88,1.06-6.14-0.6c-1.55-2.04-1.54-4.2,0.6-6.21c2.47-2.32,1.44-5.08,1.44-7.68
	c-0.04-11.55-1.61-23.07-0.35-34.64c0.13-1.19-0.73-2.53-1.28-3.73c-0.47-1.03-1.36-1.89-1.72-2.94c-0.62-1.79-1.73-2.45-3.57-2.42
	c-2.07,0.04-4.15-0.27-6.21-0.14c-0.96,0.06-2.07,0.62-2.78,1.3c-1.59,1.5-3.36,3.01-5.44,1.99c-1.21-0.59-2.61-2.65-2.44-3.85
	c0.64-4.67-1.06-8.56-2.89-12.61c-2.33-5.15-4.18-10.52-6.45-15.7c-0.53-1.2-1.77-2.33-2.96-2.96c-2.72-1.45-3.44-3.41-2.2-6.2
	c0.49-1.11,0.73-2.63,0.4-3.76c-3.4-11.71-6.99-23.37-10.42-35.07c-1.96-6.68-3.81-13.39-5.56-20.13c-0.4-1.55-1-2.42-2.54-2.96
	c-3.85-1.36-4.31-3.57-1.38-6.31c1.34-1.25,1.96-2.62,1.64-4.44c-0.1-0.57-0.31-1.33-0.04-1.7c0.47-0.64,1.26-1.04,1.92-1.54
	c0.43,0.6,0.97,1.16,1.23,1.83c0.15,0.39-0.14,0.97-0.31,1.43c-0.66,1.86-0.83,3.26,1.4,4.52c2.26,1.28,1.39,3.78,0.7,5.67
	c-0.68,1.87-0.59,3.31,0.2,5.18c1.22,2.87,1.75,6.03,2.66,9.04c0.81,2.68,1.78,5.31,2.57,8c1.93,6.53,3.75,13.1,5.71,19.62
	c1.61,5.37,3.33,10.72,5.07,16.05c0.22,0.67,0.8,1.39,1.41,1.73c2.92,1.63,3.79,4.32,2.48,7.35c-0.41,0.94-0.53,2.32-0.15,3.24
	c3.08,7.7,6.27,15.36,9.54,22.98c0.41,0.96,1.38,1.76,2.25,2.42c1.24,0.94,2.58,1.77,3.97,2.48c0.77,0.39,1.71,0.57,2.58,0.63
	c2.65,0.19,5.31,0.39,7.96,0.36c1.09-0.01,2.18-0.6,3.27-0.94c1.61-0.51,3.22-1.73,4.89-0.26c1.58,1.38,1.3,3.15,0.7,4.85
	c-0.43,1.22-1.12,2.34-1.64,3.53c-0.29,0.66-0.68,1.37-0.68,2.05c0.05,6.82,0.12,13.64,0.31,20.46c0.14,5.31,0.57,10.62,0.62,15.93
	c0.03,2.74-0.48,5.43,2.44,7.17c0.53,0.32,1.03,1.35,0.94,1.96c-0.41,2.75,1.63,2.87,3.34,3.29c2.65,0.66,5.31,1.35,8.01,1.76
	c1.02,0.15,2.32-0.2,3.19-0.78c2.43-1.62,4.66-0.93,6.77,0.39c1.92,1.21,1.91,4.97-0.27,6.3c-1.53,0.93-3.66,0.89-5.52,1.28
	c-0.79,0.17-1.84,0.07-2.33,0.55c-6.29,6.15-12.5,12.38-19.01,18.87c1.35-0.09,2.59-0.27,3.82-0.23c0.74,0.02,1.47,0.38,2.21,0.58
	c-0.48,0.69-0.83,1.79-1.45,1.98c-2.02,0.61-4.14,0.89-6.22,1.3c-1.12,0.22-2.35,0.19-3.34,0.67c-5.13,2.49-8.78,6.71-12.48,10.87
	c-2.9,3.26-5.92,6.42-8.73,9.75c-0.59,0.7-0.6,1.95-0.72,2.97c-0.17,1.51-0.43,2.77-2.36,2.9c-1.66,0.11-2.13-0.76-2.84-2.1
	c-0.96-1.83-1.17-3.4-0.75-5.42c0.23-1.09-0.71-2.47-1.22-3.68c-0.94-2.22-1.93-4.42-2.96-6.61c-0.96-2.04-5.84-3.64-8.06-2.98
	c-6.2,1.84-12.45,3.51-18.68,5.25c-1.04,0.29-2.2,0.44-3.06,1.01c-0.68,0.45-1.34,1.44-1.39,2.23c-0.1,1.72,0.18,3.47,0.34,5.2
	c0.11,1.19,0.17,2.11,1.57,2.97c2.78,1.71,2.4,6.39-0.56,7.06c-6.63,1.5-10.78,6.66-16.05,10.15c-2.14,1.42-4.02,3.25-6.18,4.63
	c-2.33,1.49-4.04,3.2-4.67,6.06c-0.43,1.95-3.37,2.96-5.67,2.28c-2.18-0.64-2.13-2.41-2.1-4.24c0.02-0.88-0.18-1.96-0.69-2.63
	c-3.66-4.71-7.4-9.37-11.2-13.96c-0.64-0.77-1.7-1.19-2.61-1.71c-0.42-0.24-0.95-0.28-1.42-0.46c-2.89-1.15-4.26-3.16-3.18-5.25
	c1.36-2.63,2.4-4.41,6.01-3.16c0.53,0.18,1.12,0.19,1.74,0.29c0.21,0.65,0.43,1.33,0.69,2.17c6.89-2.26,13.63-4.55,20.43-6.7
	c6.18-1.95,12.38-3.82,18.62-5.55c3.08-0.86,3.18-0.75,2.72-3.94c-0.06-0.41-0.09-0.83-0.1-1.24c-0.24-6.73-0.59-13.46-0.69-20.19
	c-0.18-11.79-0.21-23.58-0.31-35.37c-0.01-0.67,0.04-1.34-0.02-2c-0.23-2.59-2.05-3.71-4.31-2.46c-6.62,3.66-13.15,7.5-19.79,11.12
	c-7.57,4.13-15.2,8.14-22.84,12.12c-2.05,1.07-4.24,1.86-6.37,2.78L630.38,331.45z M655.82,405.16c1.22-0.31,2.38-1.01,3.2-0.73
	c1.76,0.61,2.81-0.14,4.02-1.12c4.08-3.27,8.18-6.5,12.32-9.69c2.15-1.66,4.45-3.13,6.55-4.85c0.58-0.47,0.71-1.51,0.98-2.32
	c0.45-1.31,0.78-2.66,1.28-3.95c0.24-0.63,1.06-1.13,1.09-1.72c0.11-2.23-0.04-4.48,0-6.72c0.04-2.19-0.96-2.53-2.82-1.86
	c-4.43,1.59-8.84,3.27-13.34,4.64c-7.93,2.41-15.89,4.73-23.9,6.86c-3.12,0.83-4.55,3.52-2.52,5.98
	C647.01,394.91,651.46,400.04,655.82,405.16z"/>
<path d="M201.83,202.94c1-0.58,1.94-1.46,3-1.66c1.05-0.19,2.62-0.07,3.26,0.6c1.08,1.13,1.83,1.14,2.95,0.35
	c0.4-0.28,0.93-0.61,1.36-0.56c1.51,0.16,3.18,0.16,4.41,0.87c0.53,0.31,0.39,2.31,0.06,3.39c-0.46,1.55-1.4,2.96-2.08,4.46
	c-0.39,0.85-0.67,1.75-1.06,2.79c1.77-0.21,1.77-0.21,4.04-4.02c0.16,1.37,0.26,2.26,0.31,2.63c1.27,0.64,2.26,1.52,3.27,1.55
	c1.63,0.04,4.27,0.03,4.73-0.86c1.65-3.18,2.57-6.74,3.9-10.54c-1.19,0.22-2.01,0.36-3.01,0.55c0.06-0.46-0.01-0.89,0.15-1.02
	c2.05-1.54,4.1-3.1,6.24-4.51c0.5-0.33,1.37-0.11,2.06-0.14c-0.03,0.63,0.09,1.31-0.11,1.87c-1.37,3.83-2.83,7.62-4.22,11.44
	c-0.35,0.97-0.55,2-0.88,3.27c1.32,0,2.34-0.19,3.24,0.06c0.7,0.19,1.25,0.93,1.86,1.43c-0.57,0.28-1.14,0.81-1.71,0.81
	c-4.76,0.06-9.53,0.09-14.29-0.03c-0.88-0.02-1.73-0.74-2.38-1.03c-1.43,0.46-2.71,1.09-4.05,1.23c-0.94,0.1-2.55-0.2-2.8-0.78
	c-0.39-0.89-0.13-2.29,0.31-3.28c0.85-1.92,2.08-3.66,3-5.55c0.28-0.58,0.07-1.4,0.08-2.11c-0.67,0.11-1.71-0.01-1.95,0.37
	c-1.28,2.03-2.43,4.15-3.5,6.3c-0.47,0.95-0.62,2.07-0.95,3.1c-0.62,1.9-2.07,2.49-3.73,1.76c-1.78-0.78-0.51-2.12-0.13-3.17
	c0.9-2.5,1.88-4.97,2.83-7.46c-0.34-0.27-0.68-0.54-1.03-0.82c-0.78,0.66-1.97,1.17-2.27,2c-0.85,2.41-1.25,4.98-2.02,7.43
	c-0.25,0.8-0.96,1.78-1.68,2.03c-0.67,0.23-2.13-0.17-2.36-0.69c-0.31-0.69,0.13-1.79,0.44-2.65c0.69-1.95,1.55-3.85,2.22-5.8
	c0.13-0.38-0.23-0.94-0.43-1.66c-1.01,0.93-1.75,1.6-2.48,2.27c-0.29-0.18-0.57-0.35-0.86-0.53c0.72-1.43,1.14-3.24,2.28-4.16
	c0.81-0.66,2.59-0.13,3.93-0.13C201.81,202.56,201.82,202.75,201.83,202.94z"/>
<path d="M484.59,338.51c0.99-0.83,1.99-1.65,2.98-2.48c0.18,0.03,0.36,0.07,0.54,0.1c-0.31,1.4-0.62,2.79-0.93,4.21
	c1.44,0,3.24-0.51,3.88,0.13c0.77,0.77,0.56,2.53,0.81,4.03c1.89-0.04,2.9-1.32,3.19-3c0.3-1.72,0.19-3.53,0.13-5.29
	c0-0.13-1.13-0.36-1.7-0.3c-0.94,0.11-1.86,0.43-3.63,0.87c1.16-3.04,1.95-5.43,3.01-7.68c0.24-0.51,1.43-0.67,2.21-0.79
	c1.85-0.3,3.72-0.5,5.59-0.68c0.45-0.04,1.22,0.04,1.33,0.29c0.19,0.44,0.2,1.38-0.07,1.55c-1.28,0.82-2.65,1.54-4.06,2.11
	c-1.42,0.57-3.34,0.2-4.16,2.48c3.04,0.07,5.28,1.1,5.7,4.19c0.15,1.11,0.09,2.37-0.3,3.4c-1.44,3.76-6.64,6.16-10.46,5.12
	c-1.6-0.43-2.13-1.31-2.08-2.86c0.04-1.18,0.43-2.95-1.37-2.89c-1.2,0.04-2.37,1.14-3.55,1.76c0.49,0.86,0.99,1.73,1.49,2.59
	c0.12,0.21,0.26,0.4,0.72,1.1c-1.4,0.35-2.58,0.76-3.8,0.91c-1.97,0.24-3.96,0.39-5.95,0.41c-0.49,0-0.99-0.65-1.48-1
	c0.37-0.47,0.76-1.34,1.11-1.33c3.13,0.12,2.81-2.65,4.45-4.8c-1.86,0-3.04-0.05-4.22,0.01c-1.19,0.07-2.38,0.25-3.75-0.12
	c5.43-5.07,10.86-10.14,16.67-15.56c1.05,5.11-2.57,8.77-2.9,13.06C484.2,338.21,484.4,338.36,484.59,338.51z M480.46,333.81
	c-1.54,1.85-3.07,3.7-4.43,5.33C478.67,339.33,479.91,338.18,480.46,333.81z"/>
<path d="M98.44,202.88c-1.17,0.28-1.63,0.5-2.07,0.47c-0.42-0.03-0.83-0.32-1.25-0.49c0.18-0.42,0.24-1.02,0.56-1.23
	c2-1.33,4.03-2.64,6.13-3.81c0.55-0.31,1.78-0.36,2.01-0.04c0.39,0.54,0.48,1.56,0.27,2.24c-1.14,3.73-2.45,7.41-3.61,11.13
	c-0.22,0.69-0.29,2.03,0.01,2.17c0.99,0.48,2.17,0.62,3.28,0.67c0.13,0.01,0.45-1.38,0.47-2.13c0.12-5.73,1.7-10.78,6.47-14.41
	c1.47-1.12,4.27-0.71,5.35,0.79c2.63,3.66,2.64,9.66,0.04,13.68c-2.06,3.18-7.31,5.15-11.53,4.47c-1.28-0.21-2.61-0.04-3.92-0.07
	c-3.47-0.06-6.95-0.08-10.41-0.28c-0.27-0.02-0.76-1.77-0.67-1.82c0.98-0.53,2.05-0.89,3.11-1.26c0.75-0.26,2-0.25,2.19-0.71
	C96.14,209.37,97.16,206.36,98.44,202.88z M113.64,200.52c-0.71,0.39-1.76,0.6-2.04,1.19c-1.45,2.93-2.73,5.95-3.96,8.98
	c-0.13,0.32,0.37,1.2,0.77,1.37c0.5,0.21,1.36,0.17,1.78-0.14C113.61,209.36,115.47,204.71,113.64,200.52z"/>
<path d="M597.91,238.62c1.04,0.8,1.89,1.6,2.87,2.16c0.56,0.32,1.39,0.44,2.02,0.3c9.56-2.06,19.12-4.13,28.66-6.29
	c4.92-1.11,9.8-2.44,14.71-3.61c2.02-0.48,3.85-0.69,5.32-2.77c1.33-1.89,5.22-1.19,6.68,0.59c1.24,1.52,0.5,4.61-1.78,6.37
	c-1.24,0.95-2.31,1.79-2.36,3.52c-0.01,0.39-0.68,0.77-1.05,1.15c-0.34-0.49-0.98-0.98-0.99-1.47c-0.02-5.04-1.52-6.21-6.43-4.92
	c-4.49,1.18-8.96,2.49-13.49,3.47c-6.08,1.32-12.23,2.32-18.33,3.55c-4.06,0.82-8.1,1.75-12.11,2.75c-0.55,0.14-1.05,0.9-1.36,1.49
	c-0.96,1.84-2.38,2.55-4.46,2.43c-2.81-0.16-3.53-2.18-4.05-4.32c-0.43-1.77,0.62-2.78,2-3.87c1.09-0.86,1.6-2.49,2.31-3.81
	c0.54-0.99,0.36-2.99,2.11-2.39c1.68,0.57,0.96,2.18,0.5,3.44C598.41,237.16,598.15,237.93,597.91,238.62z"/>
<path d="M868.27,159.05c-0.42,1.63-0.92,3.17-1.21,4.74c-0.67,3.7-0.91,3.96-4.55,4.17c-0.4,0.02-0.8,0.16-1.2,0.25
	c-1.18,0.27-2.95,1.17-3.44,0.71c-1.27-1.21-2.64-2.66-1.81-4.97c0.86-2.4,1.27-4.97,1.91-7.45c0.17-0.64,0.31-1.38,0.73-1.84
	c0.62-0.67,1.47-1.12,2.23-1.67c0.17,0.82,0.55,1.66,0.46,2.45c-0.15,1.28-0.22,1.99,1.4,2.54c2.38,0.81,3.16,0.2,3.29-2.15
	c0.05-0.96,0.48-1.93,0.86-2.84c0.52-1.28,1.12-2.4-0.66-3.34c-0.46-0.24-0.72-2.02-0.36-2.38c0.71-0.71,2.02-1.41,2.9-1.23
	c1.01,0.2,2.43,1.24,2.61,2.13c0.34,1.72,0.32,3.73-0.26,5.36c-0.58,1.63-0.37,2.48,0.79,3.66c1.33,1.36,2.94,2.78,1.77,5.21
	c-0.22,0.46,0.59,1.76,1.24,2.21c1.18,0.81,1.61,1.65,0.95,2.91c-1.25,2.38-3.2,3.46-4.87,2.86c-1.64-0.59-2.15-1.57-1.57-3.27
	c0.53-1.56,0.89-3.2,1.22-4.82C871.04,160.65,870.35,159.59,868.27,159.05z M865.03,159.68c-1.54,0.26-2.91,0.37-4.22,0.73
	c-1.38,0.38-2.2,4.85-1.05,5.71c0.34,0.26,1.36,0.27,1.51,0.04C862.55,164.14,863.7,162.03,865.03,159.68z"/>
<path d="M841.14,165.88c3.3-3.08,5.23-7.84,10.21-8.86c0.28,0.21,0.55,0.42,0.83,0.63c-1.5,3.97-2.99,7.94-4.67,12.39
	c1.12-0.28,2.12-0.64,3.15-0.77c1.18-0.15,2.5-0.41,3.54-0.03c0.55,0.2,0.66,1.64,0.97,2.52c-0.77,0.24-1.57,0.74-2.31,0.67
	c-1.13-0.11-2.23-0.9-3.32-0.85c-0.94,0.04-1.84,0.86-2.76,1.33c0.59,0.65,1.16,1.32,1.77,1.94c0.21,0.21,0.54,0.32,0.84,0.48
	c-1.39,1.49-16.77,1.94-21.31,0.67c1.19-2.33,2.63-4.56,3.49-6.99c0.84-2.36,1.09-4.93,1.64-7.62c-0.9,0.21-1.99,0.46-3.08,0.71
	c-0.11-0.15-0.23-0.3-0.34-0.45c0.35-0.46,0.63-1.01,1.07-1.35c0.99-0.75,2.01-1.53,3.13-2.03c1.08-0.48,2.31-0.61,3.47-0.89
	c0.02,1.35,0.38,2.81-0.02,4.01c-1.23,3.74-2.83,7.36-4.08,11.1c-0.2,0.59,0.65,2.18,1.1,2.22c2.11,0.17,4.33,0.25,6.35-0.26
	c0.96-0.24,1.57-1.87,2.33-2.87c-0.85-0.25-1.68-0.64-2.55-0.73c-1.93-0.19-2.21-0.81-1.07-2.69c2.26,2.41,4.55,1.88,5.71-1.3
	c0.47-1.27,0.98-2.53,0.98-4.12c-1.52,1.25-3.04,2.49-4.57,3.74C841.48,166.28,841.31,166.08,841.14,165.88z"/>
<path d="M510.1,335.49c-3.23,0.29-2.18,3.48-3.69,4.88c-0.91-2.13,0.03-5.6,2.37-6.89c1.2-0.66,3.09-0.05,4.67-0.01
	c-0.01,0.21-0.03,0.43-0.04,0.64c1.45-0.75,2.83-1.75,4.37-2.19c2.92-0.84,5.33,0.85,5.29,3.86c-0.03,2.43-0.34,4.99-1.21,7.23
	c-1.82,4.7-5.6,5.83-10.34,3.24c-0.67,2.21-1.3,4.38-1.98,6.52c-0.61,1.9-1.46,3.65-3.85,3.57c-0.75-0.02-1.66-0.32-2.14-0.83
	c-0.25-0.27,0.23-1.29,0.47-1.93c2.08-5.67,4.19-11.34,6.27-17.01C510.37,336.32,510.19,335.96,510.1,335.49z M517.38,333.9
	c-0.23,0.14-0.82,0.29-0.97,0.63c-1.08,2.49-2.17,4.99-2.99,7.56c-0.17,0.54,0.6,1.7,1.22,2.05c0.45,0.25,1.74-0.18,2.04-0.68
	c1.23-2.03,2.45-4.12,3.21-6.35C520.44,335.51,519.41,334.27,517.38,333.9z"/>
<path d="M553,344.84c1.09-0.94,2.18-1.87,3.42-2.94c0.24,2.23-0.93,3.72-2.51,4.44c-1.2,0.54-3.45,0.72-4.09,0.02
	c-0.89-0.97-1.18-3.02-0.9-4.43c0.43-2.1,1.59-4.06,2.54-6.32c-2.28-0.39-3.6,0.29-4.2,2.09c-0.75,2.28-1.43,4.59-2,6.93
	c-0.48,1.97-1.71,2.22-3.39,1.84c-2.1-0.46-1.22-1.77-0.79-2.87c0.72-1.85,1.63-3.64,2.27-5.52c0.22-0.65-0.1-1.49-0.17-2.24
	c-0.68,0.32-1.74,0.46-1.98,0.98c-1.17,2.55-2.08,5.23-3.19,7.81c-0.28,0.66-0.91,1.44-1.53,1.62c-1.65,0.48-2.32-0.36-1.76-2.01
	c0.75-2.19,1.62-4.35,2.26-6.58c0.17-0.6-0.3-1.39-0.48-2.09c-0.58,0.34-1.29,0.57-1.71,1.05c-0.54,0.62-0.84,1.44-1.43,2.5
	c-0.78-2.45,1.19-6.81,2.97-6.83c1.09-0.01,2.19,1.04,3.38,1.66c3.23-2.89,3.86-2.89,6.82,0.44c1.15-0.63,2.38-1.28,3.58-1.98
	c2.6-1.51,4.57-0.56,4.39,2.43c-0.15,2.43-1,4.82-1.55,7.23c-0.17,0.76-0.4,1.51-0.6,2.27C552.57,344.51,552.78,344.67,553,344.84z"
	/>
<path d="M715.56,8.08c4.73,2.57,4.57,7.13,5.77,10.97c0.25-0.07,0.49-0.13,0.74-0.2c0.13-1.92,0.15-3.86,0.43-5.75
	c0.11-0.73,0.82-1.38,1.25-2.06c0.31,0.71,0.86,1.41,0.9,2.14c0.12,2.04,0.04,4.1,0.04,6.74c3.54-3.1,5.68-7.32,10.1-8.49
	c0.19,0.16,0.39,0.33,0.58,0.49c-0.42,0.69-0.8,1.4-1.25,2.07c-2.17,3.2-4.18,6.55-6.6,9.55c-2.96,3.68-4.3,7.96-5.58,12.34
	c-0.18,0.61-1.09,1-1.66,1.5c-0.47-0.61-1.2-1.16-1.35-1.83c-0.23-1.02,0.03-2.14-0.08-3.21c-0.77-7.42-1.58-14.83-2.41-22.24
	C716.39,9.57,716.02,9.09,715.56,8.08z"/>
<path d="M172.26,205.28c-0.7,1.61-1.41,3.21-2.17,4.94c-1.63-3.49,0.5-7.2,3.91-7.35c2.02-0.09,4.04-0.35,6.04-0.63
	c2.49-0.35,4.71,1.17,4.44,3.61c-0.32,2.82-0.63,5.98-2.11,8.22c-0.99,1.49-4.04,2.27-6.13,2.21c-2.16-0.06-2.64,0.7-2.91,2.33
	c-0.34,2.04-0.51,4.13-1.02,6.13c-0.23,0.9-1.06,2.28-1.7,2.32c-1.28,0.1-2.78-0.34-3.86-1.05c-0.39-0.26-0.06-2,0.28-2.94
	c1.14-3.22,2.45-6.38,3.66-9.57c0.85-2.24,1.65-4.49,2.43-6.75c0.12-0.35,0.02-0.77,0.02-1.15
	C172.84,205.49,172.55,205.38,172.26,205.28z M182.1,207.04c-0.68-0.86-1.03-1.63-1.61-1.91c-0.42-0.2-1.45,0.08-1.69,0.46
	c-1.19,1.94-2.27,3.97-3.25,6.03c-0.15,0.31,0.32,1.25,0.7,1.39c0.6,0.23,1.74,0.3,1.99-0.04
	C179.62,211.1,180.81,209.07,182.1,207.04z"/>
<path d="M31.27,424.18c-1.16-0.99-1.82-1.55-2.49-2.11c0.82-0.41,1.65-1.18,2.47-1.17c2.47,0.03,4.96,0.19,7.38,0.61
	c5.84,1,7.13,6.35,5.56,11.25c-1.18,3.66-3.42,7.4-7.6,8.67c-3.05,0.92-6.27,1.41-9.45,1.7c-2.03,0.19-2.93-1.76-2.12-3.41
	c1.74-3.52,3.37-7.09,4.89-10.71C30.6,427.34,30.9,425.53,31.27,424.18z M41.5,427.84c0-0.41,0.07-0.84-0.01-1.24
	c-0.48-2.42-2.47-2.96-4.45-3.31c-1.94-0.34-1.98,1.31-2.33,2.56c-1.07,3.81-2.2,7.6-3.14,11.45c-0.17,0.69,0.55,2.27,0.69,2.25
	c1.73-0.25,3.8-0.24,5.08-1.22C40.7,435.77,40.91,431.66,41.5,427.84z"/>
<path d="M889.42,443.32c-1.52,0-3.43,0-5.02,0c0.28-2.67,0.47-5.01,0.8-7.33c0.19-1.36,0.61-2.91-1.02-3.4
	c-1.06-0.31-2.37,0.24-3.2,0.35c0.19,2.39,0.32,4.23,0.49,6.07c0.07,0.72-0.02,1.66,0.39,2.12c1.6,1.79,0.22,2.6-1.09,2.63
	c-3.64,0.08-7.28-0.18-10.92-0.38c-0.5-0.03-0.98-0.47-1.04-0.5c0.41-3.56,0.78-6.78,1.22-10.56c0.24,0.45,0.17,0.3,0.08,0.16
	c-0.52-0.79-1.04-1.58-1.57-2.37c1.22-0.13,2.44-0.4,3.65-0.36c1.3,0.04,2.59,0.38,3.88,0.58c0.07,0.01,0.18-0.08,0.24-0.06
	c2.78,1.16,5.45,0.39,8.28,0.01c2.78-0.38,4.1,1.68,4.33,5.17C889.08,437.87,889.23,440.3,889.42,443.32z M874.44,431.58
	c-0.25,2.83-0.65,5.41-0.6,7.98c0.02,0.84,1.23,1.66,1.89,2.49c0.61-0.78,1.55-1.47,1.75-2.34c0.34-1.5,0.13-3.11,0.3-4.66
	C878.02,432.95,877.02,432.01,874.44,431.58z"/>
<path d="M800.8,162.89c1.6-2.58,4.27-2.8,5.81,0.03c1.45-0.8,2.82-1.91,4.37-2.31c1.12-0.29,3.07-0.05,3.58,0.69
	c0.66,0.95,0.5,2.69,0.23,4c-0.37,1.76-1.09,3.47-1.82,5.14c-0.83,1.92-0.72,3.25,1.93,3.36c-0.98,2.1-2.34,2.85-4.3,2.36
	c-2.2-0.55-1.95-2.41-1.59-3.86c0.51-2.07,1.61-3.99,2.2-6.05c0.27-0.94-0.09-2.06-0.16-3.1c-0.92,0.68-2.29,1.16-2.67,2.07
	c-1.36,3.2-2.3,6.58-3.61,9.81c-0.26,0.63-1.44,0.88-2.2,1.31c-0.37-0.7-1.18-1.53-1.03-2.09c0.62-2.23,1.71-4.34,2.3-6.57
	c0.32-1.21,0-2.59-0.04-3.89c-0.89,1.03-2.12,1.92-2.6,3.11c-1.13,2.79-1.77,5.78-2.94,8.55c-0.26,0.6-1.92,0.61-2.94,0.89
	c-0.05-0.71-0.35-1.54-0.08-2.09c0.46-0.95,1.12-1.92,1.96-2.52c2.04-1.46,2.1-3.49,1.84-5.59c-0.08-0.62-0.75-1.65-1.13-1.64
	c-0.65,0.02-1.35,0.63-1.89,1.14c-0.45,0.43-0.69,1.07-1.06,1.66c-1.63-1.81-1.17-4.43,0.95-6.27
	C797.39,159.77,798.67,160.22,800.8,162.89z"/>
<path d="M646.31,65.35c0.85-1.4,1.42-3.5,2.55-3.87c1.21-0.4,2.96,0.83,4.78,1c-0.35-0.47-0.7-0.93-1.05-1.4
	c-0.33-0.43-0.68-0.86-1.19-1.51c2.34-1.42,3.78-0.3,5.06,1.2c1.35,1.59,1.95,3.54,0.58,5.21c-0.52,0.63-2.3,0.27-3.5,0.26
	c-0.89-0.01-1.79-0.18-2.68-0.28c-0.1,0.31-0.2,0.62-0.3,0.94c1.71,0.8,3.35,1.85,5.14,2.33c1.74,0.47,2.24,1.41,1.77,2.88
	c-0.56,1.74-1.73,0.88-2.84,0.5c-2.72-0.94-5.47-1.78-8.44-2.3c2.32,1.69,2.61,3.99,2.85,6.4c0.17,1.74,3.25,2.87,6.01,2.12
	c-1.02-0.84-1.89-1.55-2.75-2.26c0.15-0.26,0.3-0.53,0.45-0.79c1.37,0.78,2.87,1.41,4.03,2.43c0.46,0.4,0.52,2.06,0.1,2.49
	c-0.74,0.75-2.03,1.43-3.03,1.35c-2.63-0.2-5.29-0.65-7.82-1.38c-0.91-0.26-1.99-1.5-2.18-2.45c-0.58-2.92,1.81-1.31,3.05-1.67
	c0.56-1.61,0.37-2.99-1.17-4.07c-0.54-0.38-1.11-0.84-1.41-1.4c-0.64-1.21-1.83-2.81-1.46-3.7
	C643.28,66.37,645.16,65.97,646.31,65.35z"/>
<path d="M163.21,197.89c-3.69,1.8-6.73,3.28-10.12,4.93c0.76,0.56,0.95,0.8,1.14,0.82c4.8,0.38,6.4,3.44,4.36,7.95
	c-2.18,4.8-4.9,5.58-9.33,4.83c-2.21-0.38-2.12-2.42-2.06-3.7c0.05-1.14,1.42-2.22,2.21-3.32c0.63,0.62,1.49,1.13,1.81,1.88
	c0.31,0.73,0.07,1.7,0.07,2.94c2.47-1.45,3.74-3.24,4.13-5.51c0.13-0.73-0.31-1.92-0.89-2.31c-0.53-0.36-1.61,0.01-2.43,0.18
	c-0.73,0.15-1.43,0.46-2.15,0.7c0.04-0.83-0.1-1.72,0.15-2.48c0.69-2.13,1.45-4.25,2.4-6.27c0.31-0.65,1.31-1.37,1.99-1.38
	c3.47-0.02,6.72-0.43,9.35-3.03c0.49-0.49,1.25-0.87,1.94-0.98c2.43-0.41,3.51,0.77,2.37,2.9c-1.57,2.94-3.59,5.64-5.41,8.45
	c-0.37-0.17-0.73-0.33-1.1-0.5C162.1,202.25,162.54,200.52,163.21,197.89z"/>
<path d="M653.81,132.16c-3.3-4.69-3.33-5.33-0.15-6.89c-0.32-0.46-0.83-0.89-0.88-1.36c-0.14-1.28-0.51-2.8,0-3.83
	c0.71-1.44,2.18-2.03,4.05-1.47c2.15,0.64,4.25,2.01,6.73,0.86c0.31-0.15,1.27,1.09,1.93,1.69c-0.95,0.76-1.87,2.11-2.85,2.16
	c-1.76,0.09-3.57-0.6-5.35-0.96c-1.1-0.22-2.2-0.44-3.77-0.75c1.13,3.1,3.64,3.04,5.56,3.8c1.14,0.45,2.5,0.37,3.63,0.86
	c1.04,0.45,2.13,1.16,2.73,2.07c0.36,0.55-0.17,1.7-0.3,2.57c-1.26-0.2-2.55-0.29-3.78-0.62c-2.51-0.66-4.98-1.44-7.46-2.18
	c-0.17,0.32-0.35,0.63-0.52,0.95c0.91,0.75,1.71,1.76,2.76,2.21c1.82,0.77,3.77,1.32,5.71,1.74c3.89,0.85,3.91,0.79,3.31,5.45
	c-2.29-0.66-4.52-1.35-6.77-1.95c-1.59-0.43-3.22-0.68-4.8-1.14c-0.73-0.21-1.37-0.73-2.05-1.11c0.59-0.55,1.18-1.09,1.77-1.63
	C653.45,132.46,653.63,132.31,653.81,132.16z"/>
<path d="M246.62,198.77c-2.78-0.47-3.37,0.39-5,6.89c1.07-0.24,2-0.51,2.95-0.65c2.35-0.35,4.06,1.43,3.64,3.74
	c-1.01,5.51-3.62,7.51-9.16,7.21c-1.49-0.08-2.34-0.61-2.58-2.1c-0.83-5.09-0.8-10,3.4-13.82c1.69-1.54,3.36-3.21,5.33-4.29
	c2.48-1.36,3.35,0.94,4.14,2.63c0.81,1.75,0.7,3.61-1.21,4.51c-0.8,0.38-2.08-0.24-3.14-0.41c0.19-0.86,0.33-1.74,0.6-2.57
	C245.71,199.57,246.11,199.32,246.62,198.77z M244,206.1c-0.95,0.86-1.93,1.73-2.89,2.62c-0.24,0.22-0.55,0.5-0.59,0.78
	c-0.15,1.07-0.2,2.16-0.28,3.24c0.87-0.27,1.73-0.53,2.59-0.82c0.23-0.08,0.47-0.19,0.65-0.35
	C245.63,209.79,245.87,207.63,244,206.1z"/>
<path d="M136.35,206.08c3.23-0.99,6.08-1.29,6.64-4.4c0.13-0.71-0.62-1.58-0.97-2.37c-0.24,0.05-0.49,0.11-0.73,0.16
	c-0.17,0.85-0.09,1.89-0.57,2.49c-0.63,0.79-1.67,1.61-2.58,1.66c-0.51,0.03-1.52-1.42-1.59-2.26c-0.22-2.42,1.51-4.08,4.6-4.9
	c2.47-0.65,3.98,0.78,5.23,2.5c1.05,1.44,0.63,4.81-0.79,5.96c-1.37,1.11-1.38,2.27-0.89,3.74c1.33,3.92-0.63,7.33-4.75,7.48
	c-2.15,0.08-4.57-0.78-6.45-1.91c-1.91-1.15-1.29-4.38,0.69-5.43c1.72-0.91,3.33-0.09,3.77,1.79c0.22,0.94,0.71,1.81,1.08,2.71
	c0.62-0.44,1.78-0.91,1.76-1.33c-0.05-1.3-0.27-2.75-0.95-3.8C139.32,207.35,138.01,207.02,136.35,206.08z"/>
<path d="M665.56,173.23c0.08,4.53-4.74,7.58-8.99,5.58c-2.23-1.05-4.54-2.13-6.44-3.66c-1.5-1.22-2.84-3-3.51-4.8
	c-1.15-3.09,0.57-4.94,3.71-6.01c3.57-1.22,6.66,0.12,9.9,0.9C663.07,165.91,666.11,169.47,665.56,173.23z M652.16,166.56
	c-1.55,0.67-2.76,0.92-3.55,1.63c-0.4,0.36-0.29,2.17,0,2.28c4.38,1.69,8.82,3.25,13.29,4.73c0.47,0.16,1.52-0.2,1.65-0.56
	c0.21-0.58-0.01-1.4-0.26-2.03c-0.2-0.51-0.63-1.07-1.11-1.3C658.82,169.66,655.42,168.09,652.16,166.56z"/>
<path d="M663.91,191.62c-0.81-1.03-1.41-2.54-2.47-2.98c-2.43-1.01-5.07-1.52-7.64-2.14c-0.35-0.09-1.12,0.28-1.19,0.56
	c-0.14,0.56-0.12,1.32,0.17,1.79c0.72,1.18,1.64,2.24,2.95,3.98c-1.32-0.34-1.98-0.43-2.59-0.67c-1.31-0.53-2.54-1.26-3.88-1.67
	c-3.45-1.06-3.38-1-3.15-4.49c0.16-2.27,0.03-4.55,0.03-6.87c2.69,0.56,3.89,2.1,3.84,4.79c-0.02,1.16-0.31,2.34-0.17,3.47
	c0.1,0.8,0.7,1.55,1.29,2.74c0.42-0.9,0.67-1.19,0.6-1.32c-1.35-2.55-0.42-4.42,1.7-5.99c2.56-1.9,5.27-1.47,7.75-0.14
	c3.26,1.74,5.21,6.31,4.37,9.87c-0.42,1.76-1.09,3.78-3.49,3.48c-1.84-0.23-3.27-1.4-3.32-3.43c-0.02-0.78,0.46-1.97,1.05-2.25
	c0.57-0.26,1.61,0.34,2.38,0.7c0.46,0.21,0.79,0.68,1.18,1.03C663.52,191.93,663.71,191.78,663.91,191.62z"/>
<path d="M277.28,18.15c-1.04,0.13-1.86,0.14-2.63,0.36c-0.75,0.22-1.44,0.65-2.16,0.99c-0.21-0.13-0.42-0.26-0.64-0.38
	c0.63-1.18,0.98-2.86,1.96-3.41c1.3-0.72,3.23-1.04,4.64-0.65c2.49,0.69,4.1,3.76,3.98,6.33c-0.14,2.98-1.63,4.82-4.37,6.01
	c-5.33,2.32-12.69-1.81-14.28-6.6c-1.28-3.84,0.93-6.92,4.67-6.23c0.73,0.13,1.79,0.86,1.89,1.45c0.18,0.97-0.12,2.16-0.61,3.03
	c-0.17,0.3-1.53-0.06-2.34-0.15c-0.45-0.05-0.89-0.17-1.33-0.26c-0.17,0.2-0.33,0.4-0.5,0.6c0.93,0.95,1.71,2.46,2.81,2.75
	c3.88,1.03,3.92,0.87,4.87-0.47c1.61,0.63,2.01,3.97,4.74,2.09C281.69,21.06,276.86,20.02,277.28,18.15z"/>
<path d="M436.05,23.48c-0.25,4.89-4.1,7.37-8.29,5.88c-1.17-0.42-2.36-0.76-3.57-1.05c-3.32-0.8-5.21-3.14-6.34-6.11
	c-0.3-0.79-0.16-2.25,0.38-2.77c2.43-2.33,5.25-4.22,8.82-3.76c3.78,0.49,6.97,2.13,8.55,5.9
	C435.93,22.31,435.98,23.16,436.05,23.48z M422.63,19.3c-0.56,0.57-1.56,1.14-1.59,1.75c-0.04,0.75,0.56,2.01,1.18,2.24
	c2.68,1.02,5.46,1.84,8.25,2.52c0.72,0.18,1.63-0.4,2.45-0.63c-0.28-0.86-0.34-2.25-0.89-2.48C429.09,21.46,426.02,20.5,422.63,19.3
	z"/>
<path d="M630.45,286.35c0.68-1.14,1.07-1.87,1.53-2.54c3.04-4.43,6.15-8.81,9.13-13.28c0.63-0.94,0.67-2.27,1.31-3.2
	c0.36-0.53,1.36-0.78,2.09-0.8c0.28-0.01,0.87,0.94,0.86,1.44c-0.11,6.64-0.3,13.28-0.48,19.92c-0.02,0.87-0.11,1.75-0.19,2.91
	c-2.48-0.97-2.39-2.89-2.58-4.6c-0.18-1.66-0.26-3.32-0.91-5.11c-0.74,2.38-1.4,4.78-2.28,7.11c-0.26,0.7-1.12,1.19-1.7,1.77
	c-0.17-0.85-0.6-1.74-0.46-2.54c0.33-1.92,0.93-3.8,1.56-6.24C635.3,282.73,634.38,286.26,630.45,286.35z"/>
<path d="M581.03,340.33c-1.98,0-3.96,0.05-5.94-0.03c-0.59-0.02-1.17-0.41-1.76-0.63c0.31-0.52,0.52-1.15,0.94-1.56
	c3.38-3.3,6.78-6.58,10.23-9.8c0.87-0.8,1.98-1.34,2.98-2.01c0.25,0.14,0.5,0.27,0.75,0.41c-0.95,3.61-1.9,7.22-2.84,10.82
	c3.28,1.52,3.44-1.82,5.25-2.76c0.6,0.72,1.28,1.34,1.69,2.11c0.28,0.53,0.29,1.81,0.23,1.82c-2.29,0.48-1.69,2.85-2.29,3.75
	c-1.4-0.71-2.6-1.81-3.71-1.73c-0.83,0.06-1.54,1.65-2.71,3.05c2.05,0.35,3.26,0.56,4.47,0.77c0.03,0.22,0.06,0.44,0.1,0.66
	c-0.67,0.21-1.33,0.56-2,0.59c-2.57,0.14-5.15,0.23-7.72,0.24c-0.57,0-1.14-0.39-1.71-0.6c0.42-0.4,0.84-0.79,1.24-1.2
	c1.08-1.12,2.15-2.25,3.23-3.37C581.3,340.69,581.17,340.51,581.03,340.33z M576.71,338.5c4.85,0.49,6.73-1.35,6.2-7.09
	C580.6,334.06,578.65,336.29,576.71,338.5z"/>
<path d="M649.31,206.51c-0.29,2.33,1.65,3.56,5.82,3.58c-0.27-0.57-0.44-1.06-0.71-1.49c-1.3-2.09,0.01-5.23,2.39-5.68
	c4.63-0.88,9,3.05,8.61,7.75c-0.21,2.5-2.31,4.45-5.56,5.14c-3.94,0.85-9.89-1.66-11.99-5.06c-1.75-2.83-0.44-6.88,2.57-7.5
	c0.8-0.16,2.46,0.33,2.49,0.65c0.12,1.06-0.24,2.22-0.67,3.23c-0.07,0.16-1.48-0.25-2.27-0.41
	C649.76,206.68,649.54,206.58,649.31,206.51z M654.26,206.54c1.28,1.82,1.94,3.76,3.19,4.27c1.57,0.65,3.63,0.18,5.47,0.07
	c0.1-0.01,0.33-1.51,0.19-1.57C660.54,208.22,658.25,206.25,654.26,206.54z"/>
<path d="M718.6,159.21c-2.63-0.84-4.46,0.85-5.32,4.75c0.71,0.13,1.42,0.24,2.12,0.38c2.91,0.57,4.53,2.13,4.61,4.45
	c0.11,3.19-1.83,5.97-4.61,6.61c-3.67,0.85-8-2.74-8.24-6.83c-0.28-4.77,4.34-10.58,9.08-11.41c2.49-0.44,5.16,0.68,5.93,3.01
	c0.3,0.91-0.38,2.79-1.17,3.25c-0.79,0.46-2.53,0.03-3.42-0.61c-1.09-0.79-0.82-2.05,0.42-2.86
	C718.18,159.83,718.3,159.59,718.6,159.21z M710.81,166.54c0.1,1.69-0.07,3.16,0.35,4.44c0.28,0.85,1.4,1.43,2.15,2.13
	c0.54-0.59,1.13-1.15,1.62-1.78c0.24-0.31,0.29-0.78,0.48-1.14c1.42-2.73,0.88-3.63-2.31-3.76
	C712.44,166.41,711.79,166.49,710.81,166.54z"/>
<path d="M746.22,173.33c0-0.52,0.12-1.08-0.03-1.55c-0.21-0.66-0.64-1.25-0.97-1.87c-0.58,0.59-1.65,1.2-1.64,1.78
	c0.02,1.03,0.71,2.04,1.38,3.74c-3.63,0.19-7.13,0.39-10.62,0.5c-0.29,0.01-0.83-0.63-0.83-0.96c0-0.35,0.55-1.02,0.8-1
	c4.79,0.47,4.77-3.81,6.27-6.44c1.08-1.89,1.68-4.05,2.5-6.1c-0.22-0.19-0.44-0.38-0.67-0.57c-2.82,2.46-5.64,4.92-8.45,7.38
	c0.1,0.21,0.21,0.42,0.31,0.63c1.08,0.12,2.16,0.24,3.41,0.38c-2.06,1.48-5.45,1.53-7.2-0.03c3.18-2.7,6.33-5.34,9.45-8.03
	c1.82-1.56,3.57-3.22,5.42-4.75c0.51-0.42,1.28-0.53,1.93-0.78c0.15,0.74,0.59,1.57,0.41,2.22c-0.97,3.42-2.09,6.79-3.39,10.91
	c1.66-0.78,2.82-1.32,4.54-2.12c-0.63,2.54-1.17,4.69-1.7,6.83C746.83,173.45,746.53,173.39,746.22,173.33z"/>
<path d="M456.48,346.94c-4.28-0.01-5.87-1.52-5.3-5.01c0.48-2.97,1.07-6.13,2.51-8.69c1.5-2.66,3.98-4.89,7.54-4.82
	c0.6,0.01,1.45,0.23,1.75,0.66c3.79,5.38,1.88,15.41-4.27,17.38C457.77,346.76,456.78,346.87,456.48,346.94z M453.84,340.94
	c0.85,1.1,1.38,2.36,1.94,2.37c0.98,0.02,2.44-0.46,2.87-1.2c1.26-2.21,2-4.7,3.16-6.97c0.75-1.47,0.39-2.58-0.92-3.01
	c-0.83-0.27-2.49,0.01-2.85,0.61C456.48,335.29,455.27,338.05,453.84,340.94z"/>
<path d="M645.49,444.3c1.32,3.98,3.91,5.43,6.72,4.02c0.9-0.45,1.4-1.68,2.09-2.55c-0.8-0.45-1.56-1.02-2.41-1.32
	c-0.59-0.21-1.37-0.21-1.96-0.01c-2.4,0.84-4.36-0.16-5.19-2.09c-0.45-1.05,0.75-2.82,1.33-4.65c-2.02-2.73-1.63-5.87,1.54-7.94
	c0.53-0.35,1.27-0.76,1.81-0.66c2.15,0.41,4.24,1.71,6.4,0.08c0.63,0.84,1.26,1.68,1.89,2.52c-0.96,0.37-1.93,0.74-3.16,1.21
	c1.05,5.96-3.79,6.72-8.66,7.45c0.11,0.31,0.22,0.63,0.32,0.94c1.55,0.13,3.1,0.39,4.65,0.37c3.69-0.03,5.55,1.01,5.71,3.37
	c0.17,2.45-2.41,5.01-5.52,4.99c-2.01-0.01-4.06-0.56-6-1.18c-0.61-0.2-1.27-1.42-1.24-2.15
	C643.87,445.98,644.75,445.3,645.49,444.3z M647.66,434.54c0,0.45-0.19,1.07,0.04,1.41c0.53,0.77,1.27,1.4,1.92,2.08
	c0.69-0.67,1.49-1.26,2.03-2.03c0.28-0.4,0.17-1.12,0.11-1.69c-0.12-1.29-0.06-3-1.87-2.9
	C648.26,431.49,647.18,432.58,647.66,434.54z"/>
<path d="M779.67,163.19c0.27-0.62,0.35-1.36,0.72-1.56c1.09-0.6,2.31-0.99,3.47-1.46c0.05,0.95,0.39,1.99,0.11,2.83
	c-0.99,2.9-2.19,5.72-3.32,8.57c-0.43,1.08-0.73,2.07,0.84,2.56c0.4,0.13,0.62,0.78,0.93,1.2c-0.52,0.34-1.02,0.91-1.57,0.96
	c-0.7,0.06-1.42-0.4-2.16-0.48c-1.18-0.14-2.41-0.37-3.55-0.17c-3.74,0.66-7.02-2.7-5.64-6.21c0.97-2.47,2.42-4.85,4.09-6.91
	C775.97,159.58,777.66,159.87,779.67,163.19z M778.1,165.96c-0.39-0.75-0.91-1.75-1.43-2.76c-0.88,0.78-2.01,1.42-2.57,2.39
	c-0.69,1.19-1.2,2.66-1.21,4.01c0,1.04,0.89,2.09,1.39,3.13c0.84-0.65,2-1.13,2.45-1.99C777.41,169.48,777.57,167.94,778.1,165.96z"
	/>
<path d="M750.11,169.07c-0.18-3.68,0.3-7.15,3.18-9.82c0.78-0.72,1.66-1.42,2.62-1.83c3.62-1.57,6.02-0.12,6.26,3.85
	c0.14,2.38-0.02,4.78-0.11,7.16c-0.12,3.25-4.9,6.94-7.71,7.02c-3.22,0.1-4.22-0.72-4.24-3.9
	C750.11,170.73,750.11,169.9,750.11,169.07z M759.99,161.66c-0.28-0.46-0.55-1.37-1.14-1.7c-0.44-0.25-1.5,0.03-1.95,0.44
	c-2.75,2.52-3.15,6.08-3.7,9.45c-0.14,0.87,1.1,1.96,1.71,2.95c0.87-0.64,2.22-1.11,2.52-1.95
	C758.45,167.97,759.1,164.96,759.99,161.66z"/>
<path d="M266.16,198.37c-0.42,0.78-0.88,1.54-1.24,2.34c-0.44,0.98-0.63,2.12-1.24,2.96c-0.75,1.02-1.82,1.81-2.76,2.69
	c0.03-1.09-0.13-2.23,0.13-3.27c1.02-4.13,2.17-8.23,3.27-12.34c-0.34-0.28-0.68-0.57-1.02-0.85c-0.65,1.34-1.3,2.69-1.95,4.03
	c-1.51-2.86,1.27-7.27,3.37-7.07c0.62,0.06,1.55,0.83,1.66,1.41c0.31,1.61,0.38,3.29,0.33,4.93c-0.05,1.81-0.1,3.25,2.44,3.26
	c1.96,0,2.6,2.67,1.4,5.23c-0.49,1.04-0.99,2.08-1.48,3.13c0.27,0.16,0.53,0.32,0.8,0.49c0.72-0.93,1.44-1.87,2.37-3.09
	c1.38,2.23,0.21,3.54-1.04,4.68c-1.35,1.23-3,2.18-4.6,0.59c-0.53-0.52-0.52-1.84-0.37-2.73c0.31-1.83,0.88-3.61,1.34-5.41
	C267.09,199.03,266.63,198.7,266.16,198.37z"/>
<path d="M586.12,446.35c2.09-2.11,1.33-4.17,0.03-6.45c-0.87-1.53-1.01-3.45-1.73-5.08c-0.42-0.96-1.36-1.69-2.03-2.55
	c-0.39-0.5-1-1.06-0.96-1.56c0.03-0.41,0.83-1.01,1.35-1.08c1.43-0.2,2.9-0.21,4.36-0.2c2.22,0.01,4.43,0.03,6.64,0.18
	c0.62,0.04,1.21,0.57,1.81,0.88c-0.37,0.49-0.64,1.1-1.12,1.44c-2.47,1.77-2.8,4.55-3.6,7.16c-0.96,3.16-1.99,6.31-3.25,9.36
	c-0.69,1.68-3.35,2.46-4.87,1.57c-0.58-0.34-1.04-1.32-1.06-2.02c-0.02-0.54,0.65-1.43,1.17-1.57
	C583.83,446.17,584.91,446.35,586.12,446.35z M589.1,437.07c0.3-0.03,0.59-0.05,0.89-0.08c0.19-1.33,0.6-2.67,0.48-3.97
	c-0.05-0.58-1.17-1.05-1.81-1.58c-0.29,0.67-0.91,1.4-0.81,2.01C588.07,434.7,588.66,435.87,589.1,437.07z"/>
<path d="M653.33,153.76c2.74,0.67,5.5,1.26,8.21,2.03c1.06,0.3,2.64,0.77,2.88,1.52c0.5,1.53-1.1,1.73-2.25,2.29
	c-3.65,1.77-9.11-2.11-10.35-5.64c-0.62-1.76-0.27-2.28,2.63-3.62c-1.57-0.64-3.7-0.41-3.47-2.93c0.15-1.66,0.59-2.36,2.29-1.68
	c1.85,0.74,3.71,1.47,5.59,2.12c0.87,0.3,1.8,0.4,2.7,0.6c0.21-0.32,0.43-0.63,0.64-0.95c-1.1-0.42-2.19-0.85-3.29-1.27
	c0.34-0.42,0.68-0.84,1.02-1.26c1.78,1.11,3.77,2,5.21,3.45c0.51,0.51-0.35,2.37-0.58,3.61c-0.21-0.01-0.42-0.02-0.64-0.04
	c0.4,0.68,0.8,1.36,1.21,2.04c-0.12,0.19-0.25,0.37-0.37,0.56c-1.81-0.97-3.57-2.03-5.43-2.88
	C657.16,150.71,655.16,151.09,653.33,153.76z"/>
<path d="M922.58,434.28c0.73-1.49,1.46-2.98,2.18-4.48c0.24-0.51,0.64-1.04,0.63-1.54c-0.06-2.02,1.07-3.19,2.79-3.62
	c1.96-0.49,3.81-0.5,5.31,1.54c4.21,5.74,3.88,12.14-1.1,17.14c-1.64,1.65-3.52,1.7-5.34,0.23
	C924.15,441.22,923.14,438.09,922.58,434.28z M926.55,433.82c0.15,2.39,0.01,4.53,0.52,6.5c0.27,1.05,1.54,2.15,2.6,2.55
	c0.45,0.17,2.17-1.36,2.25-2.22c0.35-3.85,0.48-7.74,0.29-11.6c-0.04-0.78-1.71-1.93-2.77-2.1c-1.72-0.29-2.75,1-2.88,2.71
	C926.46,431.15,926.55,432.65,926.55,433.82z"/>
<path d="M772.28,434.78c0.21,1.25-0.79,3.3,1.72,4.01c0.1,0.03,0.05,1.88-0.44,2.38c-0.7,0.71-2.21,1.59-2.77,1.29
	c-1.54-0.82-2.64-0.59-4.13,0.07c-1.89,0.85-3.28-0.27-4.31-1.92c-1.05-1.69-0.23-2.89,1.02-3.86c1.03-0.8,2.31-1.28,3.39-2.04
	c0.77-0.54,1.48-1.24,1.98-2.02c0.15-0.24-0.49-1.39-0.82-1.42c-0.53-0.04-1.19,0.42-1.63,0.84c-0.73,0.7-1.29,1.59-2.05,2.25
	c-0.09,0.08-1.46-0.81-1.43-1.18c0.1-1.22,0.21-2.8,0.98-3.52c1.94-1.79,4.38-1.18,6.58-0.34
	C772.8,430.29,772.24,432.54,772.28,434.78z M769.05,436.03c-1.14,0.31-2.07,0.29-2.4,0.72c-0.65,0.85-1.04,1.93-1.38,2.97
	c-0.07,0.21,0.83,0.96,0.87,0.93c0.82-0.63,1.69-1.26,2.3-2.07C768.82,438.08,768.79,437.25,769.05,436.03z"/>
<path d="M446.01,344.39c1.48,0.77,2.44,1.26,3.41,1.76c-1.14,0.35-2.26,0.93-3.41,1.01c-2.33,0.16-4.68,0.05-6.86,0.05
	c1.19-2.65,2.15-4.7,3.01-6.79c0.2-0.49,0.28-1.44,0.01-1.65c-2.16-1.67-0.62-3.09,0.29-4.42c1.21-1.77,2.52-3.51,4.01-5.05
	c0.57-0.58,1.76-0.54,2.68-0.79c0.05,0.84,0.29,1.72,0.11,2.5C448.19,335.64,447.02,340.25,446.01,344.39z"/>
<path d="M951.6,438.49c-0.32-2.27-0.57-4.55-0.99-6.8c-0.15-0.8-0.72-1.52-1.14-2.26c-0.35-0.6-0.77-1.17-1.16-1.75
	c1.54-0.82,3.03-1.82,4.67-2.33c0.43-0.13,1.85,1.19,1.93,1.94c0.29,2.7,0.4,5.44,0.22,8.15c-0.2,2.97-0.5,5.81,2.32,7.87
	c0.21,0.15-0.13,1.72-0.44,1.81c-3.17,0.88-6.22,0-9.95-0.56c0.9-0.77,1.22-1.28,1.58-1.3c1.57-0.12,2.04-0.84,2.02-2.42
	c-0.01-0.77,0.95-1.55,1.47-2.32C951.95,438.52,951.78,438.51,951.6,438.49z"/>
<path d="M813.13,442.51c-0.32,0.04-1.55,0.59-2.08,0.19c-1.46-1.08-2.87-0.67-4.4-0.56c-3.28,0.23-5.4-2.27-5.49-6.24
	c-0.07-3.35,2.23-6.1,5.2-6.15c0.81-0.01,1.63,0.13,2.8,0.24c-0.07-1.33,0.05-2.58-0.25-3.72c-0.3-1.16-1.02-2.21-1.86-3.94
	c1.69-0.12,3.21-0.66,4.21-0.16c0.68,0.34,0.84,2.14,0.86,3.29c0.06,3.81-0.17,7.63-0.06,11.44
	C812.12,438.65,812.71,440.39,813.13,442.51z M809.25,436.16c0.07-0.02,0.14-0.04,0.21-0.06c-0.33-1.26-0.46-2.64-1.08-3.73
	c-0.41-0.73-1.58-1.49-2.34-1.42c-0.69,0.06-1.6,1.12-1.85,1.91c-0.42,1.31-0.57,2.78-0.5,4.17c0.09,1.81,0.26,3.89,2.63,4.18
	c1.6,0.2,2.9-1.9,2.93-4.3C809.25,436.66,809.25,436.41,809.25,436.16z"/>
<path d="M640.18,442.55c-3.88,0-8.1,0-12.3,0c2.57-4.35,1.98-8.34,0.21-12.51c0,0,0.06-0.28,0.13-0.28
	c3.01-0.08,6.06-0.41,9.02-0.02c0.9,0.12,1.98,2.15,2.2,3.43C639.94,436.06,639.94,439.03,640.18,442.55z M632.33,436.6
	c0.07,0.02,0.15,0.03,0.22,0.05c0,0.74,0.07,1.5-0.01,2.23c-0.19,1.56,0.78,2.29,2.01,2.13c0.77-0.1,1.94-1.05,2.03-1.73
	c0.26-2,0.16-4.07,0.01-6.09c-0.04-0.61-0.76-1.68-1.08-1.65c-0.8,0.07-1.94,0.48-2.23,1.09
	C632.71,433.82,632.62,435.26,632.33,436.6z"/>
<path d="M233.68,422.24c0.33-0.26,0.39-0.36,0.46-0.36c1.7,0.01,3.4,0.04,5.1,0.06c-0.34,1.64-0.64,3.28-1.04,4.9
	c-0.21,0.85-0.61,1.64-0.84,2.25c1.58,0.43,3.55,0.4,4.05,1.24c0.73,1.23,0.63,3.11,0.46,4.68c-0.17,1.6-0.84,3.15-1.43,5.16
	c1-0.54,1.64-0.88,2.33-1.25c0.02,2.03-1.37,3.93-2.75,3.7c-2.09-0.34-2.36-2-1.97-3.63c0.42-1.76,1.31-3.4,1.78-5.15
	c0.23-0.85-0.04-1.84-0.09-2.77c-0.84,0.37-2.09,0.5-2.45,1.14c-1.28,2.29-2.27,4.74-3.33,7.15c-0.2,0.45-0.06,1.14-0.35,1.42
	c-0.58,0.54-1.35,0.87-2.05,1.28c-0.22-0.76-0.8-1.65-0.6-2.27c1.1-3.3,2.41-6.54,3.62-9.81c0.34-0.93,0.57-1.9,0.85-2.86
	c0.46-1.54,0.55-2.94-1.22-3.8C233.94,423.21,233.87,422.66,233.68,422.24z"/>
<path d="M280.3,431.86c-0.71,0.88-1.43,1.76-2.48,3.06c-0.4-2.74,0.68-4.23,2.4-5.13c1.46-0.76,3.41,0.51,3.29,2.25
	c-0.15,2.11-0.81,4.19-1.27,6.28c-0.19,0.84-0.43,1.67-0.65,2.51c0.21,0.15,0.41,0.31,0.62,0.46c0.67-0.57,1.6-1.01,1.96-1.73
	c1.02-2.07,1.85-4.24,2.68-6.4c0.3-0.77,0.18-1.79,0.65-2.38c0.56-0.69,1.55-1.03,2.35-1.52c0.27,0.8,0.9,1.68,0.74,2.38
	c-0.54,2.33-1.4,4.58-2.07,6.88c-0.17,0.57-0.11,1.2,0.38,2c0.71-1.09,1.43-2.18,2.23-3.41c0.76,2.07-0.66,5.83-2.3,5.86
	c-1.07,0.02-2.16-1.22-3.55-2.09c0.11-0.1-0.17,0.26-0.54,0.48c-1.1,0.67-2.24,1.29-3.36,1.92c-0.78-1.45-2.07-2.84-2.2-4.35
	c-0.14-1.53,0.87-3.15,1.35-4.74c0.2-0.67,0.34-1.35,0.5-2.03C280.78,432.07,280.54,431.96,280.3,431.86z"/>
<path d="M569.84,344.64c1.86,0,3.13,0,4.41,0c0.09,0.21,0.19,0.42,0.28,0.63c-0.66,0.35-1.31,0.97-1.99,1
	c-2.73,0.14-5.47,0.13-8.2,0.1c-0.39,0-0.78-0.43-1.16-0.66c0.28-0.36,0.55-0.72,0.83-1.07c0.98-1.22,2.25-2.31,2.88-3.69
	c1.12-2.46,1.85-5.1,2.89-8.08c-1.49,0.8-2.68,1.44-3.87,2.07c-0.18-0.2-0.35-0.4-0.53-0.6c0.66-0.83,1.25-1.73,2-2.47
	c1.53-1.51,3.07-3.03,4.75-4.36c0.61-0.48,1.63-0.45,2.46-0.65c0.17,0.81,0.67,1.73,0.45,2.4c-1.21,3.61-2.64,7.14-3.91,10.73
	C570.63,341.38,570.33,342.82,569.84,344.64z"/>
<path d="M650.85,97.79c0.87,0,1.75,0,2.69,0c-0.92-2.98-2.1-5.72,0.47-8.26c2.77-2.74,9.47-1.37,10.43,2.4
	c0.64,2.51,0.59,5.26,0.47,7.88c-0.1,2.11-2.03,2-3.62,2.15c-1.69,0.16-2.92-0.58-3.12-2.13c-0.12-0.93,0.43-2.28,1.15-2.87
	c0.45-0.37,1.81,0.23,2.68,0.59c0.36,0.15,0.49,0.83,0.96,1.7c1.7-2.51,0.28-3.55-0.73-4.52c-2.16-2.08-7.07-2.55-8.75-0.87
	c0.89,1.86,1.8,3.76,2.71,5.65c-0.2,0.26-0.4,0.52-0.6,0.78c-1.56-0.85-3.11-1.69-4.67-2.54L650.85,97.79z"/>
<path d="M168.88,441.07c-1.61,0.42-3.42,1.52-4.78,1.11c-2.05-0.62-2.89-2.61-2.66-5.03c0.35-3.7,2.57-6.01,5.33-7.99
	c0.5-0.36,1.54-0.45,2.09-0.18c1.23,0.61,2.21,0.83,3.39-0.12c0.33-0.27,1.43-0.07,1.75,0.29c0.32,0.35,0.28,1.24,0.1,1.8
	c-0.91,2.89-1.91,5.75-2.87,8.62c0.19,0.1,0.37,0.2,0.56,0.29c0.7-0.92,1.4-1.84,2.47-3.25c0.55,2.73-0.01,4.44-1.71,5.6
	c-2.2,1.5-2.53-1.29-3.79-1.95C168.8,440.52,168.84,440.79,168.88,441.07z M169.9,433.02c-0.66-0.89-1.02-1.77-1.66-2.09
	c-0.42-0.21-1.63,0.24-1.82,0.68c-0.91,2.18-1.71,4.42-2.29,6.71c-0.17,0.69,0.49,1.58,0.76,2.38c0.85-0.37,2.14-0.52,2.46-1.15
	C168.37,437.54,169.03,435.34,169.9,433.02z"/>
<path d="M406.05,443.41c-1.74,0-3.49,0.07-5.21-0.1c-0.2-0.02-0.64-1.76-0.31-2.16c1.8-2.14,0.93-4.61,1.09-6.94
	c0.03-0.45-0.23-0.96-0.46-1.39c-0.42-0.78-2.59-1.15-1.05-2.3c1.01-0.76,2.95-1.52,4.12,0.45c0.08,0.13,0.24,0.22,0.37,0.35
	c0.15,0,0.34,0.06,0.46-0.01c4.3-2.25,7.05-0.55,7.13,4.39c0.04,2.36,0.2,4.71,0.32,7.35c-1.3,0-2.95,0-5.12,0
	c2.58-2.54,1.98-5.49,1.85-8.26c-0.04-0.89-1.03-2.4-1.65-2.44c-0.88-0.05-2.45,0.87-2.62,1.62
	C404.32,436.92,403.79,439.99,406.05,443.41z"/>
<path d="M837.97,432.45c0.16,2.55,0.43,4.95,0.42,7.35c-0.01,1.05-0.33,2.76-0.96,3c-1.18,0.44-2.68,0.04-4.47-0.03
	c2.67-3.7,2.66-7.02,0.57-10.56c-0.24-0.41-0.28-1.16-0.08-1.58c1.12-2.27,2.13-4.66,3.63-6.67c0.86-1.15,2.51-2.05,3.95-2.33
	c1.4-0.27,3.22,0.34,3.31,2.24c0.05,1.05-0.43,2.69-1.19,3.1c-1.35,0.72-1.96-0.61-2.25-1.85c-0.07-0.3-0.28-0.57-0.43-0.85
	c-0.27-0.06-0.53-0.11-0.8-0.17c-0.59,1.86-1.17,3.72-1.81,5.74c1.29,0.33,2.2,0.56,3.11,0.79c0.04,0.18,0.08,0.36,0.12,0.54
	C840.13,431.57,839.16,431.96,837.97,432.45z"/>
<path d="M611.16,338.24c3.53-0.52,2.37-3.78,4.08-5.58c1.07,2.37,0.29,4.47-0.8,6.18c-0.62,0.97-2.26,1.55-3.54,1.79
	c-1.39,0.27-2.52-0.58-2.2-2.21c0.56-2.8,1.3-5.56,2.01-8.51c-1.55-0.58-2.69,0.43-3.43,1.89c-1.08,2.15-1.9,4.42-2.98,6.57
	c-0.29,0.58-1.11,0.9-1.68,1.34c-0.45-0.62-1.39-1.36-1.27-1.83c0.8-3.04,1.8-6.02,2.82-9c0.09-0.28,1.08-0.59,1.19-0.47
	c1.36,1.49,2.51,0.08,3.79-0.06c1.43-0.16,3.15,0.06,4.32,0.8c0.51,0.32,0.15,2.4-0.19,3.57
	C612.73,334.6,611.88,336.4,611.16,338.24z"/>
<path d="M708.95,115.39c-0.28,1.33-0.46,2.22-0.66,3.11c-0.95,4.13-1.95,8.26-2.85,12.4c-0.58,2.67-1.07,5.37-1.52,8.07
	c-0.07,0.43,0.4,0.93,0.38,1.38c-0.07,1.29-0.02,2.68-0.53,3.81c-0.25,0.56-1.63,0.83-2.48,0.78c-0.33-0.02-1.04-1.61-0.81-1.92
	c2.56-3.46,0.93-7.81,2.53-11.47c0.4-0.91-0.03-2.14,0.15-3.18c0.75-4.28,1.52-8.55,2.47-12.79c0.16-0.74,1.2-1.28,1.83-1.91
	C708,114.31,708.55,114.94,708.95,115.39z"/>
<path d="M521.59,442.77c-1.28,0-2.97,0-5.12,0c3.38-4.46,2.42-8.36-0.59-12.27c0.7-0.27,1.18-0.6,1.69-0.63
	c2.5-0.16,4.98,0.6,7.56-0.03c0.66-0.16,2.17,1.23,2.53,2.19c0.64,1.67,0.7,3.56,0.99,5.36c0.27,1.65,0.55,3.3,0.88,5.34
	c-1.39,0-3.11,0-5.49,0c3.08-2.84,1.57-5.8,1.43-8.54c-0.04-0.87-1.28-1.67-1.97-2.5c-0.85,0.91-2.36,1.78-2.43,2.75
	C520.9,437,521.34,439.61,521.59,442.77z"/>
<path d="M910.48,443.42c2-2.47,2.26-4.95,1.61-7.65c-0.18-0.74,0.29-1.61,0.31-2.42c0.05-2.57-0.05-5.1-4.12-5.81
	c2.66-1.51,4.5-2.64,6.45-3.56c0.29-0.14,1.27,0.59,1.53,1.11c0.31,0.62,0.25,1.45,0.23,2.19c-0.07,3.46-0.17,6.92-0.29,10.38
	c-0.13,3.74-0.14,3.74,2.74,6.06C916.05,444.93,913.48,444.61,910.48,443.42z"/>
<path d="M118.58,440.17c0.72-1.25,1.44-2.49,2.32-4.03c0.71,2.34-0.41,5.19-2.06,5.88c-2.31,0.97-2.66-1.13-3.38-2.44
	c-0.31,0.12-0.53,0.14-0.59,0.24c-0.8,1.52-1.68,3.11-3.76,2.45c-2.3-0.73-2.13-2.79-1.85-4.6c0.32-2.09,0.94-4.14,0.91-6.52
	c-0.68,0.59-1.37,1.17-2.08,1.78c-0.4-1.8,0.71-3.96,2.25-4.16c2.09-0.26,3.01,1.33,2.94,2.91c-0.08,1.83-1.02,3.61-1.38,5.46
	c-0.21,1.09-0.03,2.25-0.03,3.38c1-0.83,2.45-1.46,2.92-2.52c1.03-2.33,1.59-4.87,2.28-7.35c0.37-1.33,0.98-2.56,2.5-1.94
	c0.5,0.21,0.8,1.84,0.59,2.67c-0.49,1.91-1.43,3.71-2.02,5.6c-0.29,0.94-0.19,1.99-0.26,3
	C118.13,440.04,118.36,440.11,118.58,440.17z"/>
<path d="M662.64,105.85c0.9-1.69,1.41-2.66,1.93-3.62c0.25,0.06,0.5,0.13,0.75,0.19c-0.45,3.59,0.8,7.21-0.53,10.94
	c-0.93-5.44-5.82-4.27-9.01-5.7c-1.21-0.55-2.72-0.44-4.35-0.67c0.29,1.06,0.51,1.84,0.72,2.63c-0.25,0.15-0.5,0.29-0.76,0.44
	c-1.49-2.43-3.2-4.75-4.38-7.32c-0.6-1.29,0.16-2.08,1.93-1.43C653.46,102.94,658.06,104.35,662.64,105.85z"/>
<path d="M563.9,442.6c-2.59,0-4.61,0-6.89,0c2.9-3.4,1.94-6.94,1.24-10.33c-0.5-2.41,1.45-8.73,3.51-10.11
	c2.3-1.54,6.04-0.21,6.03,2.24c-0.01,0.81-0.8,1.62-1.23,2.43c-0.72-0.49-1.47-0.94-2.13-1.49c-0.28-0.23-0.38-0.67-0.56-1.03
	c-2.65,1.46-2.69,3.48-0.25,6.7C560.79,433.48,560.66,438.83,563.9,442.6z"/>
<path d="M617.75,430.01c2.09,0,3.74-0.3,5.16,0.16c0.49,0.16,0.53,2.17,0.54,3.33c0.02,2.92-0.92,5.97,1.69,8.67
	c-3.21,0.26-6.22,0.84-9.14,0.56c-1.01-0.1-2.3-2.26-2.61-3.66c-0.65-2.92-0.73-5.97-1.09-9.45c0.84,0,2.26-0.3,3.39,0.14
	c0.51,0.2,0.58,1.87,0.62,2.89c0.09,2.15-0.1,4.32,0.12,6.45c0.08,0.76,1.03,1.43,1.59,2.15c0.72-0.58,1.76-1.02,2.09-1.77
	c0.56-1.26,0.82-2.71,0.92-4.1c0.12-1.67,0.01-3.39-2.16-3.92C618.58,431.39,618.4,430.88,617.75,430.01z"/>
<path d="M190.27,444.85c0.57,0.86,0.98,2.24,1.74,2.46c1.85,0.55,3.22-1.42,3.61-4.5c-1.45-0.44-3.42-0.45-4.04-1.37
	c-0.79-1.17-0.76-3.11-0.58-4.66c0.23-1.98,0.96-3.89,1.61-6.38c-1.16,0.62-1.74,0.93-2.58,1.38c0.34-1.66,1-2.98,2.54-2.54
	c0.82,0.23,1.84,1.75,1.79,2.63c-0.1,1.85-0.86,3.67-1.34,5.51c-0.34,1.3-1.41,2.89,0.39,3.72c1.81,0.84,2.55-0.97,3.09-2.14
	c1.03-2.25,1.74-4.64,2.55-6.99c0.27-0.78,0.32-1.66,0.71-2.36c0.2-0.37,0.92-0.45,1.4-0.66c0.13,0.43,0.45,0.91,0.35,1.28
	c-1.43,5.11-2.78,10.25-4.45,15.29c-0.96,2.88-4.49,4.25-7.15,2.9c-0.74-0.38-1.18-1.79-1.28-2.78c-0.05-0.52,0.91-1.15,1.41-1.74
	C190.13,444.21,190.2,444.53,190.27,444.85z"/>
<path d="M258.12,430.15c0,0.6,0.12,1.23-0.02,1.8c-1.06,4.18-2,8.41-3.35,12.5c-0.54,1.63-1.83,3.15-3.12,4.35
	c-1.9,1.78-4.64,1.47-6.14-0.59c-0.48-0.66-0.45-1.85-0.28-2.73c0.07-0.33,1.66-0.77,1.78-0.61c0.49,0.7,0.71,1.6,0.99,2.44
	c0.07,0.21-0.02,0.48-0.04,0.71c2.63,0.54,4.69-1.96,4.26-5.12c-3.64-0.01-5.03-1.96-4.28-6.14c0.16-0.88,0.78-1.69,0.89-2.57
	c0.16-1.26,0.04-2.56,0.04-4.31c1.11-0.59,2.37-0.17,2.49,1.8c0.09,1.52-0.42,3.08-0.71,4.62c-0.06,0.32-0.35,0.59-0.41,0.9
	c-0.28,1.5-1.84,3.12,0.07,4.47c0.98,0.69,3.27-1.1,3.92-3.09c0.68-2.05,1.16-4.16,1.81-6.22c0.27-0.86,0.76-1.65,1.15-2.48
	C257.49,429.98,257.81,430.07,258.12,430.15z"/>
<path d="M67.88,431.92c0.81-1,1.51-2.65,2.45-2.79c0.85-0.13,1.95,1.38,3.22,2.38c0.15-0.17,0.47-0.75,0.95-1.04
	c1.06-0.62,2.47-1.76,3.24-1.45c0.87,0.35,1.61,2.05,1.64,3.18c0.05,1.69-0.56,3.41-0.93,5.11c-0.18,0.84-0.46,1.67-0.69,2.5
	c0.22,0.12,0.45,0.23,0.67,0.35c0.74-1.06,1.49-2.12,2.52-3.59c0.87,2.12-0.18,3.52-1.16,4.59c-0.63,0.69-2.4,1.31-2.89,0.94
	c-0.89-0.67-1.78-2.17-1.65-3.2c0.25-2.01,1.26-3.91,1.83-5.9c0.2-0.68,0.01-1.47,0-2.21c-0.74,0.26-1.85,0.3-2.14,0.81
	c-1.18,2.06-2.16,4.25-3.11,6.43c-0.32,0.74-0.28,1.63-0.48,2.44c-0.33,1.32-1.22,2.18-2.51,1.55c-0.43-0.21-0.57-1.67-0.36-2.44
	c0.56-2.08,1.42-4.07,2.08-6.12c0.23-0.72,0.26-1.5,0.5-2.99c-1.32,0.9-2,1.36-2.67,1.82C68.21,432.18,68.04,432.05,67.88,431.92z"
	/>
<path d="M390.55,430.88c1.25-0.18,2.51-0.54,3.74-0.44c0.45,0.03,1.11,1.12,1.16,1.77c0.12,1.73-0.16,3.49-0.07,5.23
	c0.09,1.7,0.45,3.38,0.75,5.45c-1.13,1.05-2.24,0.67-3.11-1.21c-0.77,0.57-1.37,1.15-2.09,1.5c-2.57,1.26-5.5-0.61-5.7-3.51
	c-0.2-2.79-0.58-5.58-0.71-8.37c-0.02-0.5,0.76-1.4,1.27-1.48c1.3-0.2,2.57,0.1,2.56,1.87c-0.01,1.99-0.27,4.01-0.01,5.97
	c0.19,1.36,1.08,3.75,1.65,3.74c1.93-0.01,2.34-1.89,2.69-3.6c0.53-2.6,0.88-5.08-2.69-6.36
	C390.18,431.26,390.36,431.07,390.55,430.88z"/>
<path d="M630.32,331.39c-1.13,2.06-2.06,4.28-3.45,6.15c-1.95,2.6-4.02,3.03-5.65,1.66c-1.99-1.67-2.4-5.58-0.17-7.08
	c2.95-1.98,4.26-4.59,5.06-7.79c0.13-0.51,0.96-0.84,1.47-1.25c0.24,0.64,0.79,1.36,0.66,1.91c-0.53,2.16-1.27,4.26-1.96,6.45
	c1.38,0,2.74,0,4.11,0C630.38,331.45,630.32,331.39,630.32,331.39z"/>
<path d="M717.33,423.55c-3.02,1.31-2,3.93-2.7,6.01c1.19,0.31,2.07,0.54,2.95,0.78c0.17,0.21,0.35,0.42,0.52,0.63
	c-3.41,0.27-3.78,2.34-3.49,4.68c0.25,2.01-0.9,4.48,1.98,5.72c-0.07,0.21-0.14,0.43-0.21,0.64c-1.72,0.1-3.45,0.21-5.39,0.33
	c2.12-4.58,1.75-9.24-0.17-11.17c0.86-2.28,1.66-4.23,2.33-6.22c0.94-2.79,4.19-4.78,6.3-3.64c0.74,0.39,1.43,1.16,1.78,1.92
	c0.63,1.37,0.36,2.67-1.25,3.22C718.67,426.88,718.05,426.23,717.33,423.55z"/>
<path d="M446.95,430.93c1.32-0.16,2.11-0.24,2.89-0.34c1.81-0.24,2.66,0.36,2.4,2.35c-0.2,1.56-0.25,3.17-0.09,4.73
	c0.17,1.66,0.68,3.29,1.12,5.29c-1.38,1.05-2.73,1.05-3.38-0.83c-1.49,0.48-2.82,1.27-4.14,1.27c-2.4,0-3.53-1.65-3.69-4.07
	c-0.18-2.71,1-5.71-2.18-8.51c1.87-0.23,3.16-0.69,4.24-0.38c0.49,0.14,0.68,1.79,0.78,2.77c0.22,2.22,0.21,4.47,0.51,6.68
	c0.09,0.66,0.82,1.63,1.38,1.73c0.58,0.1,1.78-0.57,1.9-1.1c0.55-2.29,1.01-4.65,1.03-6.99
	C449.73,432.8,448.24,432.08,446.95,430.93z"/>
<path d="M705.17,440.55c0.91-0.53,1.4-0.82,2.08-1.22c0.09,2.05-0.95,3.47-2.44,3.11c-1.04-0.25-1.9-2.08-2.4-3.37
	c-0.38-0.99-0.08-2.25-0.37-3.45c-1.49,1.2-4.07,1.4-3.39,3.98c0.2,0.77,1.41,1.27,2.24,1.96c-0.77,1.26-2.71,1.53-4.46,0.24
	c-1.38-1.01-1.58-3.29-0.12-4.58c0.94-0.84,2.32-1.16,3.45-1.8c0.97-0.54,2.05-1.06,2.72-1.88c0.31-0.38-0.04-1.64-0.49-2.16
	c-0.36-0.42-1.35-0.51-1.98-0.37c-0.3,0.07-0.32,1.06-0.62,1.54c-0.41,0.64-0.97,1.19-1.46,1.78c-0.65-0.62-1.9-1.36-1.81-1.85
	c0.21-1.07,0.85-2.44,1.74-2.93c3.82-2.15,7.22-0.11,7.32,4.23C705.21,435.9,705.17,438.03,705.17,440.55z"/>
<path d="M436.48,443.02c-3.4,0-7.22,0-10.85,0c0.23-2.19,0.6-4.17,0.59-6.16c-0.01-1.92-0.41-3.84-0.7-6.37
	c1.11-1.11,1.99-1.06,3.55,0.9c4.3-2.25,6.15-1.23,6.65,3.69C435.97,437.59,436.2,440.09,436.48,443.02z M433.32,436.25
	c-0.03-0.43,0.15-1.6-0.23-2.54c-0.3-0.75-1.26-1.65-1.97-1.69c-0.66-0.04-1.89,0.88-2,1.52c-0.36,2.09-0.53,4.27-0.33,6.37
	c0.08,0.77,1.33,1.84,2.2,2.02c1.25,0.25,2.43-0.38,2.33-2.08C433.28,438.86,433.32,437.87,433.32,436.25z"/>
<path d="M65.32,429.23c-0.79,3.42-1.58,6.85-2.38,10.27c0.21,0.1,0.43,0.2,0.64,0.3c0.55-0.78,1.1-1.56,1.96-2.78
	c0.63,2,0.02,3.53-1.15,4.3c-0.84,0.55-2.33,0.11-3.54,0.11c-0.02-0.27-0.04-0.55-0.06-0.82c-0.7,0.4-1.38,0.87-2.11,1.2
	c-2.22,1-4.41-0.05-5.07-2.37c-1.08-3.78,1.3-8.85,4.97-10.38c0.62-0.26,1.8-0.37,2.08-0.03c1.39,1.74,2.61,0.98,3.92-0.21
	C64.82,428.96,65.07,429.1,65.32,429.23z M61.8,433.9c-0.19-0.1-0.38-0.2-0.57-0.31c-0.06-0.66,0.06-1.39-0.2-1.96
	c-0.56-1.24-1.61-1.96-2.69-0.72c-1.98,2.25-3.06,4.96-2.69,8c0.22,1.8,1.68,2.4,2.76,1.03C59.83,438.16,60.7,435.94,61.8,433.9z"/>
<path d="M209.67,428.46c2.16,0.05,4.44,2.5,4.71,5.08c0.34,3.21-2.57,8-5.66,8.9c-1,0.29-2.39,0.11-3.32-0.38
	c-2.14-1.14-3.38-5.27-2.6-7.82C203.68,431.36,207.2,428.4,209.67,428.46z M204.86,437.98c0.73,1.12,1.31,1.99,1.89,2.87
	c0.99-0.69,2.43-1.16,2.86-2.11c0.84-1.83,1.25-3.9,1.55-5.91c0.1-0.71-0.49-1.99-1.05-2.19c-0.6-0.21-1.94,0.32-2.28,0.92
	C206.71,433.53,205.9,435.67,204.86,437.98z"/>
<path d="M963.74,435.48c-0.12-1.09-0.39-1.87-0.21-2.53c0.17-0.63,0.89-1.68,1.22-1.63c2.21,0.37,4.55,0.66,6.49,1.67
	c0.9,0.47,1.07,2.48,1.43,3.83c0.18,0.69-0.09,1.49,0.06,2.2c0.69,3.24-1.09,5.71-4.71,6.42c-3.31,0.65-5.97-1.04-6.34-4.27
	c-0.09-0.76,0.59-2.01,1.26-2.35c0.61-0.3,1.76,0.21,2.53,0.62c0.4,0.21,0.5,1,0.76,1.51c0.45,0.87,0.93,1.73,1.4,2.59
	c0.82-0.85,1.98-1.57,2.36-2.58c0.47-1.24,0.64-2.82,0.31-4.09c-0.63-2.38-2.24-2.87-4.6-1.86
	C965.19,435.22,964.62,435.27,963.74,435.48z"/>
<path d="M542.17,436.43c0.12-4.12,2.8-6.88,6.61-6.81c2.79,0.05,5.15,3.41,5.09,7.22c-0.05,3.16-2.71,6.58-5.22,6.34
	C544.98,442.84,541.69,440.28,542.17,436.43z M546.25,436.07c0,1.3-0.2,2.05,0.04,2.6c0.46,1.03,1.19,1.93,1.8,2.89
	c0.92-0.67,2.53-1.27,2.63-2.04c0.26-2.21,0.04-4.52-0.3-6.74c-0.09-0.58-1.41-1.49-1.95-1.36c-0.78,0.18-1.68,1.07-1.97,1.86
	C546.12,434.31,546.28,435.55,546.25,436.07z"/>
<path d="M297.09,443.71c-1.9,0.01-4.17-1.88-4-3.64c0.07-0.77,0.99-1.46,1.52-2.18c0.46,0.7,0.98,1.36,1.35,2.11
	c0.28,0.58,0.42,1.8,0.54,1.79c0.9-0.09,1.96-0.18,2.62-0.71c0.44-0.36,0.67-1.68,0.35-2.13c-0.69-0.98-1.76-1.71-2.73-2.48
	c-2.2-1.76-2.57-3.68-1.01-5.54c1.41-1.69,5.1-2.08,6.57-0.56c0.52,0.53,0.9,1.49,0.84,2.2c-0.06,0.66-0.8,1.26-1.25,1.88
	c-0.57-0.46-1.14-0.91-1.69-1.38c-0.54-0.46-0.99-1.12-1.6-1.36c-0.35-0.14-0.96,0.4-1.45,0.63c0.37,0.67,0.67,1.38,1.13,1.98
	c0.29,0.37,0.79,0.6,1.24,0.8c2.18,0.99,3.21,2.6,2.7,5C301.78,442.12,299.48,443.69,297.09,443.71z"/>
<path d="M483.3,430.36c0.32-0.65,0.85-1.75,1.38-2.86c0.51-1.08,1.01-2.17,1.51-3.26c0.3,0.04,0.61,0.07,0.91,0.11
	c0.09,1.94,0.18,3.88,0.27,5.99c0.15,0.05,0.44,0.16,0.74,0.26c0.64,0.21,1.29,0.42,1.93,0.63c-0.57,0.43-1.17,0.84-1.7,1.31
	c-0.44,0.39-1.14,0.84-1.17,1.3c-0.13,2.07-0.14,4.15-0.02,6.22c0.03,0.57,0.67,1.11,1.03,1.67c0.62-0.47,1.41-0.83,1.83-1.45
	c0.42-0.61,0.47-1.48,0.68-2.23c0.29,0.01,0.57,0.03,0.86,0.04c0,0.97,0.24,2.02-0.05,2.89c-0.68,2.08-2.93,3.14-5.05,2.59
	c-2.23-0.58-2.34-2.25-2.19-4.13c0.12-1.49,0.2-3,0.06-4.48C484.19,433.6,483.74,432.27,483.3,430.36z"/>
<path d="M457.45,431.14c0.95-1.97,2.09-4.32,3.35-6.92c2.3,2.29-1.18,7.3,4.79,6.61c-0.69,0.85-0.87,1.22-1.17,1.42
	c-0.89,0.61-2.55,1.09-2.61,1.73c-0.23,2.46-0.32,5.06,0.29,7.41c0.38,1.47,1.81,0.51,2.41-0.45c0.49-0.77,0.71-1.71,1.24-3.05
	c1.12,2.31,0.31,4.02-0.89,4.83c-1.13,0.77-3.1,1.05-4.39,0.62c-0.82-0.27-1.35-2.18-1.54-3.43c-0.25-1.62,0.13-3.33-0.08-4.96
	C458.71,433.78,458.03,432.67,457.45,431.14z"/>
<path d="M88.66,428.66c0.91,0.46,1.6,0.82,2.83,1.44c-6.53,1.31-4.71,6.46-6.13,10.04c0.31,0.2,0.62,0.41,0.93,0.61
	c0.96-1.27,1.93-2.53,3.05-4.01c1.01,2.27,0,3.92-1.43,4.86c-0.94,0.62-2.74,0.6-3.85,0.14c-1.66-0.7-1.39-2.42-0.98-3.94
	c0.3-1.12,0.47-2.27,0.87-3.35c0.64-1.76,0.68-3.31-1.17-4.42c2.68-1.66,2.61-1.69,3.94-5.41c0.24-0.65,1.37-0.98,2.1-1.46
	c0.27,0.75,0.8,1.52,0.74,2.25C89.48,426.52,88.98,427.59,88.66,428.66z"/>
<path d="M798.36,439.12c0.29,2.99-2.32,4.66-5.51,3.53c-2.23-0.79-3.93-3.35-4.03-6.08c-0.1-2.79,1.53-6.34,3.59-6.88
	c1.28-0.34,3.29-0.3,4.07,0.47c1.23,1.23,1.77,3.2,2.43,4.92c0.08,0.2-0.91,1.07-1.51,1.21c-0.86,0.19-1.83-0.15-2.71,0
	c-1.01,0.17-1.98,0.64-2.96,0.97c0.54,1.16,0.83,2.6,1.72,3.37c0.52,0.46,2.06,0.04,2.98-0.36c0.54-0.23,0.75-1.21,1.11-1.85
	C797.8,438.65,798.08,438.88,798.36,439.12z M793.51,435.89c1.09-1.06,2.48-1.88,2.39-2.45c-0.14-0.87-1.31-1.57-2.04-2.34
	c-0.64,0.86-1.45,1.65-1.83,2.61C791.89,434.06,792.75,434.82,793.51,435.89z"/>
<path d="M686.27,436.63c0.87,4.61,2.11,5.15,6.24,3.11c0.19,2.11-1.8,3.59-4.2,3.15c-2.46-0.46-4.59-2.73-5.14-5.5
	c-0.6-3.03,1.47-7.23,4.19-7.8c1.26-0.27,3.22,0,3.99,0.84c1.06,1.16,1.36,3.05,1.77,4.69c0.05,0.18-1.29,0.91-2.05,1.05
	C689.5,436.44,687.88,436.49,686.27,436.63z M688.29,435.49c0.37-0.02,0.74-0.05,1.11-0.07c0.39-0.59,1.25-1.39,1.09-1.74
	c-0.43-0.99-1.28-1.79-1.96-2.67c-0.61,0.73-1.64,1.43-1.7,2.21C686.77,433.93,687.76,434.72,688.29,435.49z"/>
<path d="M600.24,322.62c-0.28,1.8-0.49,3.17-0.72,4.69c0.83,0.21,1.67,0.43,3.46,0.89c-5.02,1.95-6.01,5.78-6.96,9.64
	c0.25,0.17,0.5,0.35,0.74,0.52c0.93-1.34,1.87-2.68,2.8-4.02c0.26,0.14,0.52,0.28,0.77,0.42c-0.91,1.75-1.58,3.71-2.81,5.19
	c-1.14,1.37-3.49,0.46-3.78-1.33c-0.2-1.2-0.26-2.51,0-3.68c0.61-2.75,1.41-5.47,2.2-8.18C596.5,324.84,597.71,323.5,600.24,322.62z
	"/>
<path d="M680.39,442.31c-2.05,0-4.2,0-6.06,0c2.9-7.03,2.66-13.66-0.42-20.64c1.2-1.04,3.04-0.88,4.48-0.2
	c0.62,0.29,0.7,2.15,0.69,3.29c-0.04,4.65-0.3,9.29-0.26,13.94C678.84,439.76,679.72,440.82,680.39,442.31z"/>
<path d="M264.27,440.1c0.69-1.2,1.39-2.41,2.18-3.78c0.83,2.08-0.46,5.54-2.06,6.15c-1.52,0.58-3.22-0.39-3.09-2.15
	c0.17-2.37,0.73-4.73,1.34-7.04c0.46-1.76,1.61-3.38,1.81-5.14c0.21-1.86-0.35-3.81-0.64-6.31c1.01,0.08,2.78-0.2,3.95,0.5
	c0.59,0.35,0.4,2.6,0.03,3.83c-1.16,3.8-2.59,7.52-3.87,11.28c-0.25,0.74-0.29,1.55-0.42,2.33
	C263.75,439.89,264.01,440,264.27,440.1z"/>
<path d="M742.86,429.39c1.12,0.29,2.08,0.53,3.1,0.79c-0.18,0.39-0.19,0.51-0.25,0.54c-1.02,0.51-2.87,0.92-2.93,1.53
	c-0.27,2.52-0.23,5.13,0.14,7.63c0.23,1.56,1.94,1.33,3.8-0.51c-0.44,2.07-2.37,3.57-4.37,3.19c-1.94-0.37-2.6-1.87-2.67-3.67
	c-0.05-1.41,0.13-2.83-0.04-4.22c-0.17-1.42-0.64-2.81-1.14-4.86c0.58-1.3,1.47-3.4,2.48-5.45c0.24-0.49,0.87-0.79,1.32-1.18
	c0.29,0.53,0.81,1.06,0.82,1.59C743.15,426.24,742.97,427.72,742.86,429.39z"/>
<path d="M849.96,442.54c-1.97,0.16-3.94,0.37-5.9,0.38c-0.16,0-0.53-1.89-0.48-1.91c1.79-0.6,1.44-2.03,1.4-3.34
	c-0.02-0.67-0.05-1.33-0.06-2c-0.04-3.37-0.04-3.37-2.83-5.31c1.48-0.23,2.54-0.48,3.62-0.54c1.83-0.11,3.68-0.24,5.5-0.09
	c0.74,0.06,1.73,0.72,2.02,1.37c0.24,0.53-0.21,1.65-0.71,2.13c-0.28,0.27-1.31-0.16-1.97-0.38c-0.52-0.17-0.99-0.48-2.26-1.12
	c1.64,3.68-2.43,7.28,1.88,10.1C850.09,442.08,850.02,442.31,849.96,442.54z"/>
<path d="M157.34,430.09c-1.14,0.66-2.24,0.91-2.53,1.53c-0.92,2-1.75,4.1-2.19,6.25c-0.18,0.87,0.53,2.49,1.26,2.81
	c0.72,0.32,2.09-0.4,2.96-0.99c0.89-0.61,1.51-1.61,2.44-2.64c0.3,2.68-1.52,5.15-3.73,5.56c-2.33,0.43-5.01-1.16-5.73-3.41
	c-1.34-4.18,2.27-9.95,6.64-10.66c2.45-0.39,4.74,1.53,4.11,3.58c-0.22,0.73-1.1,1.26-1.67,1.88c-0.46-0.67-0.97-1.31-1.35-2.02
	C157.36,431.66,157.44,431.2,157.34,430.09z"/>
<path d="M380.55,438.84c0.4,2.79-1.28,4.72-3.93,4.77c-2.35,0.04-4.21-1.05-5.3-3.12c-1.68-3.17-1.24-6.28,1.05-8.76
	c1.71-1.85,3.76-2.48,6.07-1.4c0.81,0.38,1.81,1.22,1.92,1.97c0.13,0.91-0.59,1.94-0.95,2.91c-0.56-0.67-1.12-1.34-1.68-2.02
	c-0.42-0.51-0.96-1.52-1.2-1.45c-0.86,0.25-2.24,0.8-2.3,1.35c-0.23,2.17-0.42,4.49,0.12,6.56c0.65,2.45,2.39,2.66,4.33,0.95
	C379.23,440.12,379.74,439.6,380.55,438.84z"/>
<path d="M855.34,436.64c0.12-3.83,2.59-6.65,5.69-6.49c3.03,0.15,5.79,3.43,5.69,6.76c-0.09,3.05-3.2,6.36-5.92,6.3
	C858.02,443.16,855.23,439.8,855.34,436.64z M858.42,436.56c0.25,1.59,0.22,2.81,0.68,3.82c0.31,0.69,1.28,1.48,1.97,1.49
	c0.71,0.01,2.01-0.84,2.04-1.37c0.16-2.55,0.08-5.14-0.17-7.69c-0.05-0.5-1.22-1.24-1.88-1.24c-0.61,0-1.49,0.74-1.74,1.36
	C858.81,434.19,858.64,435.6,858.42,436.56z"/>
<path d="M513.74,436.93c0.06,2.81-2.88,6.26-5.35,6.29c-2.79,0.04-5.57-3.04-5.63-6.23c-0.06-3.75,2.53-7.16,5.48-7.21
	C511.18,429.73,513.66,432.95,513.74,436.93z M511.17,436.1c-0.12-0.71-0.11-1.95-0.57-2.97c-0.34-0.76-1.27-1.68-1.99-1.73
	c-0.75-0.05-1.94,0.7-2.25,1.4c-0.51,1.16-0.71,2.59-0.6,3.87c0.17,1.9-0.59,4.51,2.37,5C510.01,441.97,511.18,439.85,511.17,436.1z
	"/>
<path d="M604.1,429.47c0.71,0.45,2.23,1.06,3.24,2.15c2.64,2.87,1.41,8.87-2.02,10.68c-2.47,1.31-5.09,0.12-6.89-3.12
	C596.27,435.29,599.16,429.5,604.1,429.47z M600.62,435.81c0.25,1.42,0.31,2.88,0.82,4.15c0.28,0.69,1.29,1.36,2.05,1.47
	c0.57,0.08,1.45-0.61,1.88-1.19c1.8-2.43,1.27-5.08,0.25-7.58c-0.3-0.75-1.48-1.49-2.31-1.55c-0.63-0.05-1.58,0.87-1.95,1.58
	C600.89,433.61,600.85,434.74,600.62,435.81z"/>
<path d="M272.32,440.19c0.69-1.05,1.39-2.11,2.18-3.31c0.82,2.19-0.97,5.95-2.81,6.05c-0.61,0.03-1.59-0.79-1.85-1.44
	c-1.21-3.07,0.31-5.81,1.34-8.58c0.81-2.17,1.85-4.27,2.43-6.49c0.27-1.06-0.3-2.35-0.58-4.13c0.69,0,2.01-0.17,3.23,0.12
	c0.3,0.07,0.56,1.69,0.33,2.44c-1.4,4.58-2.96,9.12-4.43,13.68c-0.16,0.49-0.14,1.03-0.2,1.55
	C272.07,440.1,272.2,440.14,272.32,440.19z"/>
<path d="M785.12,434.58c-0.65-1.02-1.03-1.86-1.63-2.5c-0.49-0.53-1.4-1.26-1.85-1.11c-0.74,0.25-1.71,1.1-1.78,1.78
	c-0.2,1.95-0.12,3.96,0.11,5.91c0.18,1.52,1.07,2.58,2.87,2.49c0.49-0.02,0.99,0.3,1.62,0.51c-2.1,1.88-4.83,1.35-6.97-1.13
	c-2.79-3.24-1.28-9.68,2.66-11.35c2.07-0.88,4.78-0.23,5.81,1.48C786.82,432.09,786.84,433.43,785.12,434.58z"/>
<path d="M124.87,441.26c1.4-0.28,2.3-0.34,3.12-0.64c1.67-0.61,2.1-1.63,0.63-2.92c-0.87-0.77-2.05-1.27-2.69-2.18
	c-0.74-1.05-1.65-2.58-1.38-3.61c0.32-1.19,1.74-2.75,2.87-2.91c1.4-0.2,3.06,0.71,4.41,1.49c0.34,0.19-0.08,1.7-0.15,2.6
	c-0.62-0.42-1.24-0.84-1.86-1.26c-0.54-0.36-1.07-0.94-1.65-0.99c-0.53-0.05-1.12,0.47-1.69,0.73c0.33,0.61,0.55,1.35,1.03,1.81
	c0.71,0.68,1.59,1.19,2.42,1.74c1.68,1.13,1.71,2.81,1.29,4.46c-0.52,2.03-2.2,3.16-4.08,3.05c-1.38-0.08-2.78-1.13-3.98-2
	c-0.41-0.29-0.43-1.44-0.25-2.09c0.12-0.43,0.88-0.83,1.41-0.92c0.21-0.04,0.75,0.76,0.83,1.23
	C125.25,439.45,125.03,440.1,124.87,441.26z"/>
<path d="M120.69,199.26c0.24-1.72-0.23-3.86,2.46-4.13c3.74-0.38,4.97,0.36,5.65,3.48c0.74,3.39-0.11,5.41-2.55,6.06
	C122.4,205.67,120.7,204.03,120.69,199.26z M127.41,199.75c-1.16-0.93-2.21-2.12-2.51-1.95c-0.87,0.49-1.74,1.43-1.99,2.36
	c-0.13,0.48,1.3,1.98,1.57,1.87C125.43,201.65,126.18,200.77,127.41,199.75z"/>
<path d="M472,323.85c1.94,0.02,3.76,1.89,3.75,3.86c-0.02,2.23-2.78,5.03-4.99,5.06c-2.79,0.03-4.49-1.91-4.44-5.08
	C466.36,324.59,467.53,323.8,472,323.85z M473.25,328.26c-1.32-0.6-2.16-1.27-2.98-1.26c-0.5,0.01-1.49,1.46-1.4,1.58
	c0.63,0.79,1.43,1.54,2.33,1.97C471.41,330.64,472.24,329.41,473.25,328.26z"/>
<path d="M725.07,155.79c0.11-2.9,2.18-5.06,4.74-4.96c2.1,0.08,4.33,2.81,4.17,5.1c-0.13,1.92-3.18,4.54-5.23,4.51
	C726.52,160.41,724.97,158.45,725.07,155.79z M729.33,158.74c0.84-1.39,1.73-2.23,1.7-3.02c-0.02-0.6-1.31-1.67-1.89-1.58
	c-0.75,0.12-1.89,1.17-1.9,1.83C727.24,156.71,728.3,157.46,729.33,158.74z"/>
<path d="M96.06,422.28c1.78-0.01,3.45-0.02,5.12-0.02c-0.38,1.44-0.7,2.9-1.15,4.32c-1.44,4.47-2.89,8.94-4.45,13.37
	c-0.25,0.7-1.1,1.18-1.67,1.77c-0.17-0.8-0.68-1.72-0.47-2.4c1.26-3.95,2.62-7.88,4.11-11.76c0.71-1.85,1.1-3.36-1.28-4.16
	c-0.12-0.04-0.2-0.26-0.24-0.42C96,422.83,96.05,422.66,96.06,422.28z"/>
<path d="M265.28,11.2c-2.5,0.03-4.57-2.06-4.57-4.59c0-1.94,2.87-4.52,4.97-4.48c2.21,0.04,4.29,2.85,4.36,5.9
	C270.09,9.95,268.26,11.17,265.28,11.2z M268.33,7.28c-1.31-1-2.2-1.68-3.09-2.36c-0.49,0.68-1.52,1.6-1.35,2
	c0.39,0.92,1.29,1.73,2.17,2.27C266.27,9.32,267.23,8.23,268.33,7.28z"/>
<path d="M342.84,443c-0.75,0.06-1.53,0.28-2.24,0.14c-2.95-0.6-5.1-4.77-4.32-8.23c0.75-3.3,3.96-5.49,7.04-4.78
	c1.83,0.42,3.02,1.46,2.81,3.46c-0.05,0.51-0.71,0.97-1.09,1.45c-0.38-0.38-0.96-0.7-1.09-1.15c-0.32-1.17-0.26-2.98-1.93-2.46
	c-1.02,0.32-2.04,1.89-2.34,3.08C338.84,437.82,339.09,440.96,342.84,443z"/>
<path d="M258.63,192.68c-0.22,1.57-0.11,3.28-0.74,4.66c-0.81,1.76-1.16,2.76,1.27,2.98c0.36,0.03,0.66,0.72,0.99,1.11
	c-0.36,0.29-0.69,0.78-1.1,0.85c-3.85,0.71-4.01,0.92-3.11,4.71c0.03,0.14-0.08,0.31-0.13,0.46c-2.92,0.49-4.37-1.07-3.4-4.01
	c1.09-3.28,2.5-6.46,3.85-9.65c0.25-0.59,0.89-1.01,1.35-1.51C257.96,192.42,258.29,192.55,258.63,192.68z"/>
<path d="M217.19,449.2c-1.32,0-2.92,0-4.35,0c3.35-6.04,6.33-11.99,5.92-19.37c0.21,0.08,1.12,0.14,1.27,0.51
	c0.73,1.79,1.81,3.51,0.88,5.66c-1.15,2.68-2.16,5.44-3.01,8.23C217.44,445.75,217.43,447.4,217.19,449.2z"/>
<path d="M418.32,14.42c-2.71,0.08-4.36-1.39-4.37-3.89c-0.01-1.94,2.02-4.19,3.84-4.26c2.93-0.11,5.42,1.79,5.56,4.24
	C423.47,12.79,421.5,14.33,418.32,14.42z M421.45,11.02c-1.1-0.97-1.71-1.79-2.51-2.09c-0.34-0.13-1.63,1.13-1.56,1.25
	c0.49,0.9,1.17,1.73,1.93,2.4C419.42,12.68,420.36,11.83,421.45,11.02z"/>
<path d="M750.31,429.36c3.36-1.42,4.36-0.91,4.65,2.53c0.09,1.05-0.28,2.13-0.26,3.19c0.06,2.18,0.24,4.36,0.4,6.91
	c-1.56,0-3.45,0-5.65,0C753.21,437.66,751.94,433.52,750.31,429.36z"/>
<path d="M357.54,430.75c3.55-1.51,4.67-1.06,5.2,2.29c0.27,1.7,0.03,3.48,0.06,5.22c0.01,0.58,0.17,1.15,0.22,1.73
	c0.09,0.95,0.16,1.91,0.23,2.87c-1.81-0.14-3.62-0.27-5.43-0.44c-0.06-0.01-0.08-0.45-0.12-0.67
	C361.17,439.66,361.14,434.64,357.54,430.75z"/>
<path d="M388.82,41.96c2.53-1.74,5.31-0.93,8.01-0.36c0.4,0.08,0.82,1.17,0.79,1.77c-0.02,0.33-0.92,0.83-1.46,0.89
	c-1.06,0.11-2.15-0.03-3.23-0.06c-2.64-0.07-5.28-0.09-7.91-0.23c-1.31-0.07-3.27,0.27-3.01-1.89c0.24-2.02,2.09-1.9,3.56-1.57
	C386.65,40.73,387.63,41.4,388.82,41.96z"/>
<path d="M478.46,442.9c-1.42,0.61-2.69,0.14-2.77-1.49c-0.12-2.44-1.26-4.76-0.6-7.34c0.15-0.6-1.23-2.01-2.16-2.35
	c-1.24-0.45-1.54,0.63-1.55,1.82c0,0.52-0.69,1.04-1.06,1.55c-0.45-0.61-1.24-1.21-1.26-1.82c-0.02-0.69,0.5-1.61,1.08-2.07
	c2.88-2.31,6.81-0.69,7.26,2.95c0.18,1.47,0.18,2.97,0.36,4.45C477.9,439.93,478.18,441.25,478.46,442.9z"/>
<path d="M354.61,442.95c-2.28,0-3.98,0-5.89,0c2.33-4.03,2.21-9.42-0.45-12.77c1.53-0.17,2.83-0.61,3.91-0.29
	c0.52,0.15,0.72,1.75,0.85,2.72C353.51,435.91,351.92,439.43,354.61,442.95z"/>
<path d="M419.82,443.04c-1.17,0-2.44,0-3.51,0c0.31-2.09,0.81-4.06,0.85-6.04c0.09-4.33-0.12-4.47-4.4-5.66
	c0.99-0.37,2.1-1.22,2.94-1.01c1.29,0.33,2.63,1.18,3.5,2.2c0.6,0.71,0.57,2.05,0.61,3.12
	C419.87,438.04,419.82,440.43,419.82,443.04z"/>
<path d="M46.65,429.73c3.55-0.61,4.61,0.11,4.26,2.37c-0.33,2.1-1.15,4.12-1.77,6.17c-0.17,0.57-0.41,1.12-0.62,1.68
	c0.18,0.11,0.35,0.21,0.53,0.32c0.74-0.85,1.48-1.7,2.22-2.55c0.28,0.12,0.55,0.24,0.83,0.36c-0.5,1.12-0.78,2.44-1.57,3.29
	c-0.51,0.55-2.22,0.87-2.56,0.51c-0.75-0.79-1.41-2.12-1.31-3.16c0.15-1.68,0.9-3.31,1.46-4.94
	C48.6,432.37,49.94,430.9,46.65,429.73z"/>
<path d="M494.72,431.22c3.17-1.19,3.81-0.76,3.89,2.15c0.08,2.72,0.2,5.45,0.51,8.15c0.15,1.36-0.3,1.94-1.52,1.91
	c-1.17-0.03-2.33-0.27-3.86-0.46C496.68,440.48,496.79,433.47,494.72,431.22z"/>
<path d="M605.57,321.89c-1.05,1.42-2.11,2.83-3.16,4.25c-0.22-0.09-0.44-0.18-0.66-0.27c0.12-0.63,0.07-1.36,0.38-1.87
	c0.99-1.62,2.01-3.23,3.22-4.68c0.48-0.58,1.65-1.19,2.2-0.98c0.73,0.28,1.66,1.36,1.64,2.07c-0.05,2.02-0.45,4.05-0.94,6.02
	c-0.09,0.37-1.23,0.48-1.88,0.71c-0.22-0.68-0.66-1.38-0.61-2.05c0.06-0.94,0.48-1.86,0.74-2.79
	C606.19,322.15,605.88,322.02,605.57,321.89z"/>
<path d="M725.48,441.4c-1.37,2.34-2.46,4.35-3.72,6.25c-0.25,0.38-1.11,0.36-1.69,0.52c-0.03-0.65-0.35-1.58-0.04-1.91
	c1.63-1.74,2.3-3.19-0.24-4.78c-0.4-0.25-0.37-2.09,0.11-2.62c0.58-0.64,2.19-1.2,2.73-0.84
	C723.75,438.74,724.46,440.1,725.48,441.4z"/>
<path d="M712.49,68.68c0.29-1.53,0.33-3.17,0.96-4.54c0.34-0.74,1.7-1.01,2.6-1.48c0.35,0.76,1.03,1.54,0.99,2.28
	c-0.11,1.71-0.63,3.39-0.88,5.1c-0.19,1.34-0.57,2.71-2.13,2.31c-0.64-0.16-0.95-1.7-1.35-2.64c-0.12-0.28-0.02-0.65-0.02-0.98
	C712.6,68.71,712.55,68.69,712.49,68.68z"/>
<path d="M101.55,429.89c1.55-0.09,2.73,0.99,2.42,3.23c-0.33,2.36-0.99,4.67-1.65,7.64c1.14-0.89,1.89-1.47,2.85-2.22
	c-0.03,2.23-0.79,3.82-2.88,3.78c-2.06-0.04-2.48-1.89-2.17-3.52c0.33-1.77,1.29-3.41,1.67-5.18
	C102.01,432.55,101.66,431.34,101.55,429.89z"/>
<path d="M651.19,199.39c-0.06,1.87-1.91,3.49-3.89,3.39c-1.61-0.08-3.25-2.2-3.15-4.16c0.09-1.74,0.72-3.14,2.77-3.1
	C649.53,195.58,651.25,197.19,651.19,199.39z M650.2,199.09c-1.11-0.72-1.7-1.38-2.31-1.4c-0.42-0.01-0.86,0.86-1.3,1.34
	c0.53,0.47,1,1.17,1.61,1.32C648.61,200.45,649.2,199.76,650.2,199.09z"/>
<path d="M219.82,441.99c4.52-0.38,8.36-6.3,6.71-9.7c-0.44-0.89-2.18-1.14-3.32-1.68c0.63-1.24,1.98-1.7,3.36-0.74
	c2.11,1.47,2.64,4.68,1.35,8.22c-1,2.74-4.06,5.15-6.29,4.87C221.2,442.92,220.82,442.55,219.82,441.99z"/>
<path d="M504.37,333.58c-1.58-3.01-0.9-8.71,0.92-9.99c0.65-0.45,1.64-0.41,2.47-0.6c0.1,0.77,0.51,1.67,0.26,2.3
	C506.96,327.97,505.71,330.56,504.37,333.58z"/>
<path d="M650.91,97.75c-3.06,0.45-3.77-0.12-3.88-3.11c-0.07-1.9-0.17-3.81-0.09-5.71c0.02-0.52,0.62-1.02,0.95-1.53
	c0.45,0.32,1.2,0.56,1.3,0.96c0.46,1.95,0.75,3.93,1.08,5.91c0.2,1.18,0.37,2.36,0.57,3.53C650.85,97.79,650.91,97.75,650.91,97.75z
	"/>
<path d="M710.83,81.85c0.31-2.24,0.4-4.42,1.01-6.43c0.24-0.79,1.66-1.23,2.54-1.82c0.31,0.83,0.86,1.65,0.87,2.48
	c0.01,1.22-0.4,2.44-0.58,3.67C714.37,81.7,713.32,82.49,710.83,81.85z"/>
<path d="M718.67,54.59c-0.28,2.02-0.28,3.56-0.75,4.93c-0.27,0.76-1.32,1.25-2.02,1.87c-0.52-0.69-1.44-1.36-1.48-2.08
	c-0.09-1.53-0.01-3.21,0.56-4.6c0.33-0.82,1.71-1.22,2.62-1.8C718.03,53.58,718.46,54.26,718.67,54.59z"/>
<path d="M766.03,159.14c-0.97-2.27,1.09-8.29,3.21-9c0.46-0.15,1.63,0.42,1.74,0.85C771.48,152.97,768.15,158.26,766.03,159.14z"/>
<path d="M649.37,255.2c-0.7,2.29-1.12,4.28-1.96,6.06c-0.35,0.74-1.62,1.05-2.48,1.55c-0.15-0.9-0.57-1.86-0.39-2.68
	c0.4-1.78,1.02-3.52,1.76-5.19c0.26-0.58,1.21-1.27,1.74-1.19C648.6,253.83,649.02,254.79,649.37,255.2z"/>
<path d="M715.85,49.93c0.5-2.55,0.75-4.62,1.36-6.57c0.18-0.58,1.35-0.85,2.07-1.26c0.33,0.67,0.98,1.37,0.92,2.01
	c-0.18,1.96-0.51,3.93-1.06,5.82c-0.18,0.62-1.22,1.42-1.83,1.38C716.74,51.29,716.21,50.3,715.85,49.93z"/>
<path d="M708.99,91.16c0.47-2.32,0.63-4.09,1.25-5.69c0.24-0.62,1.53-0.82,2.35-1.21c0.26,0.68,0.8,1.38,0.73,2.02
	c-0.18,1.64-0.47,3.3-1.02,4.85c-0.25,0.72-1.21,1.18-1.84,1.76C709.89,92.23,709.33,91.57,708.99,91.16z"/>
<path d="M375.79,43.32c-0.74,0-1.54,0.16-2.22-0.05c-0.66-0.2-1.22-0.77-1.82-1.18c0.53-0.73,0.99-2.01,1.61-2.09
	c1.68-0.22,3.47-0.1,5.14,0.24c0.56,0.12,1.13,1.28,1.24,2.04c0.05,0.3-1.06,0.97-1.73,1.15c-0.68,0.18-1.47-0.03-2.22-0.06
	C375.79,43.36,375.79,43.34,375.79,43.32z"/>
<path d="M703.44,148.32c-0.38,2.03-0.48,3.57-1.01,4.93c-0.3,0.75-1.34,1.21-2.05,1.79c-0.34-0.76-0.98-1.52-0.97-2.27
	c0.02-1.48,0.21-3.01,0.69-4.4c0.25-0.74,1.26-1.22,1.92-1.81C702.56,147.23,703.1,147.91,703.44,148.32z"/>
<path d="M707.58,99.87c0.16-1.14,0-2.5,0.57-3.37c0.53-0.8,1.85-1.08,2.83-1.6c0.19,0.75,0.53,1.5,0.53,2.25
	c-0.01,0.97-0.35,1.94-0.44,2.92c-0.13,1.3-0.3,2.77-2,2.38c-0.77-0.18-1.29-1.45-1.92-2.23C707.29,100.12,707.44,100,707.58,99.87z
	"/>
<path d="M970.7,426.61c-0.63,1.84-0.88,3.35-3.19,2.91c-0.78-0.14-1.73,0.69-3.13,1.31c-0.29-1.47-0.65-2.9-0.77-4.35
	c-0.02-0.28,0.96-0.96,1.41-0.9C966.87,425.81,968.7,426.23,970.7,426.61z"/>
<path d="M259.8,216.25c-0.52-0.57-1.42-1.57-2.33-2.56c1.09-0.99,2.03-2.49,3.29-2.83c1.67-0.45,2.37,1.07,2.37,2.68
	C263.13,215.19,262.44,216.23,259.8,216.25z"/>
<path d="M598.22,347.11c-0.23-3.84,0.42-4.88,3.04-4.89c1.4-0.01,2.48,0.24,2.27,2.07C603.22,347.05,601.87,347.8,598.22,347.11z"/>
<path d="M710.39,106.39c-0.43,1.9-0.67,3.37-1.14,4.76c-0.16,0.47-0.91,0.96-1.42,1c-0.3,0.02-0.91-0.8-0.96-1.29
	c-0.14-1.45-0.34-2.99,0-4.36c0.21-0.87,1.34-1.52,2.05-2.27C709.45,105.01,709.99,105.8,710.39,106.39z"/>
<path d="M654.3,161.72c-2.39-0.32-4.84-0.42-7.13-1.07c-0.68-0.19-0.92-1.92-1.36-2.94c0.83-0.15,1.85-0.67,2.47-0.38
	c2.22,1.07,4.31,2.41,6.46,3.66C654.58,161.23,654.44,161.47,654.3,161.72z"/>
<path d="M630.21,308.45c0.56-1.95,0.93-3.66,1.57-5.26c0.19-0.48,1.34-1.07,1.67-0.9c0.59,0.32,1.34,1.27,1.23,1.79
	c-0.35,1.69-0.98,3.34-1.69,4.91c-0.19,0.41-1.13,0.74-1.65,0.66C630.89,309.58,630.56,308.86,630.21,308.45z"/>
<path d="M330.12,41.88c-1.06-0.12-2.23-0.01-3.13-0.45c-0.62-0.3-0.86-1.38-1.27-2.1c0.63-0.24,1.25-0.67,1.88-0.68
	c1.32-0.01,2.68,0.04,3.93,0.38c0.78,0.21,1.4,1.01,2.09,1.55c-0.75,0.43-1.48,0.93-2.27,1.26c-0.33,0.14-0.81-0.08-1.22-0.13
	C330.13,41.76,330.12,41.82,330.12,41.88z"/>
<path d="M365.94,39.67c0.66,0.07,1.5-0.09,1.93,0.25c0.75,0.61,1.25,1.53,1.85,2.32c-0.73,0.36-1.44,0.97-2.18,1.02
	c-1.04,0.06-2.18-0.11-3.13-0.53c-0.65-0.29-1.04-1.16-1.55-1.77c0.7-0.44,1.37-0.93,2.1-1.3c0.25-0.13,0.65,0.03,0.98,0.05
	C365.94,39.7,365.94,39.68,365.94,39.67z"/>
<path d="M771.36,369.8c0.63,0.76,1.95,1.76,1.78,2.28c-0.37,1.16-1.31,2.58-2.35,2.96c-0.84,0.31-2.21-0.69-3.27-1.26
	c-0.26-0.14-0.44-1.12-0.29-1.23C768.46,371.64,769.77,370.84,771.36,369.8z"/>
<path d="M315.81,435.72c-1.85,0.06-2.22-1.17-2.24-2.61c-0.02-1.59,0.51-2.79,2.41-2.73c1.7,0.06,2.31,1.16,2.34,2.63
	C318.35,434.66,317.56,435.68,315.81,435.72z"/>
<path d="M348.31,38.94c0.8,0.12,1.68,0.08,2.37,0.43c0.48,0.24,0.97,1.01,0.96,1.54c-0.01,0.41-0.72,1.07-1.21,1.17
	c-1.26,0.25-2.62,0.5-3.86,0.28c-0.76-0.14-1.35-1.17-2.01-1.79c0.75-0.47,1.46-1.02,2.26-1.38c0.41-0.18,0.97-0.03,1.46-0.03
	C348.29,39.07,348.3,39,348.31,38.94z"/>
<path d="M403.06,41.37c0.17,0,0.33-0.01,0.5,0c1.38,0.09,3.26-0.15,3.18,1.85c-0.09,2.07-2.04,1.38-3.34,1.53
	c-0.16,0.02-0.33-0.02-0.5-0.05c-1.37-0.27-3.5,0.31-3.39-1.84c0.04-0.73,2.11-1.34,3.25-2.01
	C402.86,41.02,402.96,41.19,403.06,41.37z"/>
<path d="M788.11,174.68c0.06-2.67,1.44-3.98,3.63-3.7c0.69,0.09,1.25,1.11,1.88,1.71c-1.35,1.18-2.68,2.4-4.12,3.45
	C789.41,176.2,788.37,174.96,788.11,174.68z"/>
<path d="M724.7,9.61c-2.2-1.76-2.6-6.12-0.9-7.41c0.43-0.32,1.35-0.38,1.83-0.13c0.43,0.23,0.87,1.1,0.77,1.57
	C725.96,5.6,725.31,7.52,724.7,9.61z"/>
<path d="M287.78,40.2c-1.21-0.16-2.25-0.14-3.16-0.47c-0.55-0.2-0.9-0.93-1.34-1.42c0.45-0.38,0.87-1.04,1.36-1.1
	c1.3-0.17,2.65-0.21,3.94-0.04c0.66,0.09,1.25,0.74,1.86,1.14c-0.55,0.6-1.06,1.26-1.69,1.77C288.49,40.3,287.96,40.19,287.78,40.2z
	"/>
<path d="M648.19,248.92c0.48-1.74,0.81-3.28,1.37-4.73c0.16-0.42,1.08-0.86,1.53-0.76c0.44,0.1,1.09,0.96,1.01,1.35
	c-0.35,1.76-0.89,3.5-1.48,5.2c-0.1,0.28-0.99,0.62-1.17,0.48C648.93,250.07,648.59,249.44,648.19,248.92z"/>
<path d="M296.25,40.96c-1.15-0.79-3.34-1.69-3.27-2.35c0.24-2.21,2.24-1.1,3.6-1.14c0.25-0.01,0.53-0.01,0.73,0.11
	c0.76,0.43,1.49,0.92,2.22,1.38c-0.74,0.48-1.47,0.98-2.24,1.43c-0.2,0.11-0.49,0.07-0.73,0.09
	C296.46,40.64,296.36,40.8,296.25,40.96z"/>
<path d="M939.87,445.38c-0.47-0.94-1.47-2.04-1.26-2.79c0.26-0.91,1.54-1.53,2.38-2.28c0.71,0.84,1.97,1.69,1.97,2.52
	c0,0.89-1.21,1.77-1.9,2.65C940.67,445.46,940.27,445.42,939.87,445.38z"/>
<path d="M864.51,177.09c-1.05-1.17-1.71-1.91-2.38-2.66c0.91-0.78,1.77-2.07,2.76-2.18c0.7-0.08,1.59,1.41,2.39,2.2
	C866.5,175.2,865.72,175.94,864.51,177.09z"/>
<path d="M627.44,317.39c0.72-1.65,1.25-3.13,2.02-4.48c0.22-0.38,1.11-0.37,1.69-0.55c0.14,0.51,0.49,1.08,0.39,1.53
	c-0.32,1.37-0.7,2.74-1.29,4.01c-0.24,0.52-1.11,1.13-1.58,1.05C628.2,318.86,627.87,317.97,627.44,317.39z"/>
<path d="M179.27,429.33c1.76,1.33,2.12,3.07,1.75,4.82c-0.37,1.77-1.14,3.46-1.88,5.13c-0.22,0.49-0.92,0.76-1.4,1.13
	c-0.08-0.64-0.35-1.34-0.19-1.91c0.48-1.65,1.3-3.2,1.66-4.87C179.49,432.35,179.27,430.96,179.27,429.33z"/>
<path d="M314.67,439.19c0.57,0.9,1.77,2,1.56,2.65c-0.32,1.01-1.5,2.2-2.51,2.42c-1.55,0.33-2.15-1.18-1.88-2.46
	c0.2-0.95,1.07-1.77,1.64-2.64C313.88,439.17,314.27,439.18,314.67,439.19z"/>
<path d="M336.41,39.07c1.39,0,2.79-0.07,4.17,0.02c1.41,0.1,2.27,1.86,1.25,2.33c-1.29,0.6-2.99,0.62-4.44,0.41
	c-0.63-0.09-1.09-1.36-1.63-2.1C335.97,39.51,336.19,39.29,336.41,39.07z"/>
<path d="M357.77,39.36c0.93,0.6,2.68,1.25,2.65,1.8c-0.1,2.16-2.02,1.66-3.46,1.69c-0.49,0.01-1.1,0.03-1.45-0.23
	c-0.59-0.44-1.01-1.1-1.5-1.67c0.57-0.39,1.09-0.91,1.71-1.13c0.51-0.18,1.15,0.01,1.73,0.04C357.56,39.7,357.67,39.53,357.77,39.36
	z"/>
<path d="M472.07,436.88c-1.63,4.32-1.63,4.32,0.91,5.6c-0.03,0.24-0.06,0.48-0.1,0.72c-1.19-0.24-2.61-0.17-3.49-0.83
	c-0.71-0.52-1.23-2.04-1.01-2.91C468.8,437.84,470.12,436.85,472.07,436.88z"/>
<path d="M637.93,294.97c-1.16,1.62-2.16,3.01-3.16,4.4c-0.41-0.59-1.29-1.37-1.14-1.74c0.65-1.6-0.27-4.2,2.47-4.52
	C636.53,293.06,637.08,294.07,637.93,294.97z"/>
<path d="M411.92,41.89c0.21,0,0.92-0.21,1.34,0.05c0.61,0.37,1.02,1.09,1.51,1.65c-0.51,0.45-0.98,1.18-1.55,1.27
	c-0.95,0.15-2.06,0.11-2.94-0.25c-0.66-0.27-1.06-1.16-1.58-1.77c0.62-0.37,1.22-0.79,1.87-1.08
	C410.82,41.65,411.21,41.81,411.92,41.89z"/>
<path d="M311.64,37.12c1.31,0.94,2.3,1.65,3.29,2.36c-0.85,0.56-1.7,1.59-2.55,1.59c-1.3,0-3.36,0.34-3.41-1.81
	C308.96,38.66,310.45,38.03,311.64,37.12z"/>
<path d="M354.58,425.24c-1.42,1.01-2.36,2.16-3,2.01c-0.83-0.19-1.84-1.33-2.03-2.22c-0.29-1.4,0.76-2.49,2.2-2.19
	C352.6,423.01,353.27,424.07,354.58,425.24z"/>
<path d="M527.83,347.22c-0.96-1.33-2-2.19-1.84-2.66c0.33-1.03,1.27-1.86,1.97-2.78c0.72,0.78,1.9,1.51,2.01,2.36
	C530.05,344.87,528.9,345.76,527.83,347.22z"/>
<path d="M188.22,212.39c1.13-0.91,2.04-2.09,2.49-1.93c0.88,0.31,1.49,1.36,2.21,2.1c-0.8,0.76-1.6,1.51-2.39,2.27
	C189.9,214.16,189.26,213.49,188.22,212.39z"/>
<path d="M320.4,37.63c1.26,0.92,2.09,1.54,2.92,2.15c-0.89,0.5-1.79,1.41-2.68,1.4c-1-0.02-1.98-0.87-2.97-1.36
	C318.46,39.19,319.26,38.55,320.4,37.63z"/>
<path d="M826.05,174.48c-1.38,0.92-2.18,1.85-2.73,1.72c-0.82-0.19-1.47-1.13-2.2-1.74c0.68-0.67,1.28-1.75,2.06-1.89
	C823.8,172.45,824.62,173.47,826.05,174.48z"/>
<path d="M497.07,428.2c-1.02-1.42-1.88-2.19-2.11-3.13c-0.09-0.38,1.52-1.69,1.76-1.55c0.84,0.48,1.64,1.33,2,2.23
	C498.9,426.14,497.94,426.97,497.07,428.2z"/>
<path d="M304.16,41.34c-1.03-1.01-1.7-1.67-2.36-2.32c0.78-0.48,1.61-1.4,2.34-1.33c0.92,0.08,1.76,0.97,2.64,1.52
	C306.01,39.84,305.24,40.46,304.16,41.34z"/>
<path d="M666.51,142.16c-1.34,0.95-2.06,1.68-2.93,1.96c-0.33,0.1-1.5-1.08-1.41-1.26c0.43-0.9,1.05-1.79,1.84-2.37
	C664.22,140.33,665.25,141.3,666.51,142.16z"/>
<path d="M362.95,431.28c1.37-0.62,2.23-1.28,3.08-1.29c0.59,0,1.5,0.82,1.69,1.44c0.18,0.62-0.29,1.5-0.66,2.17
	c-0.06,0.11-1.1-0.21-1.6-0.48C364.84,432.77,364.29,432.27,362.95,431.28z"/>
<path d="M54.72,423.87c-1.16,0.95-1.98,2.05-2.47,1.93c-0.73-0.19-1.55-1.19-1.72-1.97c-0.09-0.4,1.09-1.42,1.81-1.54
	C52.88,422.18,53.59,423.06,54.72,423.87z"/>
<path d="M758.15,428.3c0.92,1.25,1.79,1.96,1.92,2.78c0.08,0.51-0.95,1.19-1.49,1.8c-0.67-0.75-1.51-1.41-1.92-2.28
	C756.51,430.27,757.36,429.47,758.15,428.3z"/>
<path d="M183.25,429.81c1.77-0.65,3.31-1.19,3.83,1.11c0.11,0.49-0.41,1.13-0.65,1.7c-0.51-0.25-1.11-0.41-1.51-0.78
	C184.35,431.31,183.92,430.63,183.25,429.81z"/>
<path d="M661.18,115.31c1.09-0.65,1.8-1.36,2.13-1.22c0.76,0.34,1.33,1.09,1.98,1.67c-0.51,0.51-1.17,1.53-1.49,1.43
	C663,116.96,662.35,116.21,661.18,115.31z"/>
<path d="M557.7,345.4c0.87-0.5,1.73-1.01,2.6-1.51c0.21,0.55,0.67,1.54,0.61,1.57c-0.85,0.46-1.78,0.79-2.68,1.16
	C558.05,346.21,557.88,345.81,557.7,345.4z"/>
<circle class="st1" cx="81.61" cy="199.26" r="6.25"/>
<circle class="st2" cx="114.36" cy="130.38" r="6.25"/>
<circle cx="49.95" cy="141.42" r="6.25"/>
<circle cx="192.93" cy="86.97" r="6.25"/>
<circle cx="132.36" cy="68.09" r="6.25"/>
<circle cx="129.15" cy="112.51" r="6.25"/>
<circle cx="153.43" cy="112.51" r="6.25"/>
<circle class="st3" cx="273.49" cy="38.94" r="6.25"/>
<circle cx="418.65" cy="82.9" r="6.25"/>
<circle cx="505.24" cy="160.02" r="6.25"/>
<circle cx="477.47" cy="155.97" r="6.25"/>
<circle class="st4" cx="495.2" cy="186.86" r="6.25"/>
<circle cx="442.3" cy="147.52" r="6.25"/>
<circle cx="538" cy="178.57" r="6.25"/>
<circle class="st3" cx="720.94" cy="233.52" r="6.25"/>
<circle cx="735.39" cy="269.07" r="6.25"/>
</svg>
