<?xml version="1.0" encoding="utf-8"?>
<!-- Generator: Adobe Illustrator 26.5.0, SVG Export Plug-In . SVG Version: 6.00 Build 0)  -->
<svg version="1.1" id="Layer_1" xmlns="http://www.w3.org/2000/svg" xmlns:xlink="http://www.w3.org/1999/xlink" x="0px" y="0px"
	 viewBox="0 0 459.85 461.14" style="enable-background:new 0 0 459.85 461.14;" xml:space="preserve">
<style type="text/css">
	.st0{fill:#403B39;}
	.st1{fill:none;stroke:#403B39;stroke-width:7;stroke-miterlimit:10;}
	.st2{fill:none;}
	.st3{font-family:'LucidaSans-Demi';}
	.st4{font-size:39px;}
	.st5{fill:none;stroke:#403B39;stroke-width:4.4645;stroke-miterlimit:10;}
</style>
<g>
	<g>
		<path class="st0" d="M272.13,239.57l4.87,13.81c3.92-0.62,9.96-2.47,27.58,0l0.97-2c-7.26-5.24-13.01-12.31-16.65-20.49v0
			c-0.44-1.23-0.96-2.63-1.54-4.17"/>
		<path class="st0" d="M287.42,227.12c-8.09-21.79-25-68.83-26.39-85.35c0.41,0.3-0.4-0.31,0,0c-0.02-3.47-0.31-7.44,0.75-10.07
			c-0.55-0.25-0.37,0.31,0,0c1.05-4.87,2.76-9.57,5.09-13.98c0.82-1.35,1.73-2.65,2.73-3.87c0.04-0.04,0.28-0.29,0.28-0.29
			l-0.02-0.02c1.25-1.49,2.64-2.85,4.17-4.05l-1-2.32c-4.84,2.13-15.05,7-21.33,12.67c-3.02-2.81-8.65-5.68-12.82-7l-0.79,1.91
			c0.36,0.33,0.65,0.72,0.88,1.15l0.03,0.04l0.03,0.04c2.33,3.06,3.9,6.63,4.58,10.41c0,0,0.23,0.03,0,0
			c0.04,2.28,0.36,4.85,0.33,7.13c0.88,0.2,0,0,0,0c-0.33,3.6-0.94,7.17-1.84,10.68c0,0-0.78,3.52-0.8,3.59
			c-0.01,0.02-9.93,39.91-11.56,46.14c-1.62-6.22-11.55-46.11-11.55-46.14c-0.01-0.08-0.79-3.59-0.79-3.59
			c-0.9-3.51-1.52-7.09-1.85-10.7c0.57-0.16-0.58,0.14,0,0l0.34-7.11c-0.46,0.07,0,0,0,0c0.68-3.78,2.25-7.34,4.58-10.4l0.03-0.04
			l0.03-0.04c0.23-0.43,0.52-0.82,0.88-1.15l-0.79-1.91c-4.17,1.32-9.81,4.19-12.83,7c-6.27-5.67-16.48-10.53-21.32-12.67l-1,2.32
			c1.52,1.21,2.92,2.56,4.17,4.05l-0.02,0.02c0,0,0.24,0.25,0.28,0.29c1,1.22,1.91,2.52,2.73,3.87c2.32,4.4,4.03,9.09,5.08,13.95
			c0.16,0.08,1.14-0.55,0,0l0.77,10.02c1.36-1.2,0,0,0,0c-1.35,16.65-11.49,46.17-19.52,68.05c-0.02,0.03-0.12,0.61-0.2,0.81
			c-0.37,1.21-0.39,1.47-0.78,2.43c-0.88,2.18-0.88,2.18-1.75,4.01c-0.25,0.53-2.39,6.86-3.9,10.49c0.91,1.18,0.46-0.82,0,0
			c-0.52,1.4-0.99,2.68-1.4,3.81c-3.64,8.18-9.39,15.25-16.65,20.49l0.96,2c17.62-2.47,23.63-0.62,27.56,0l4.74-13.62
			c0.08,0.05-0.08-0.05,0,0c0.36-0.83,0.58-1.52,0.72-1.9c0.17-0.45,0.84-1.71,1.15-2.73c0.6-2.01,1.22-4.27,1.92-6.25
			c-0.07-0.06,0.06,0.07,0,0l17.49-50.23c1.64,6.28,5.14,19.3,5.13,19.28l0.76,3.4c0.76,2.75,1.22,5.58,1.37,8.43
			c0,3.66-1.35,6.93-5.53,11.33l0.68,2.01c2.77,1.52,5.83,2.43,8.98,2.65c0.9,4.34,5.98,10.95,9.54,14.01
			c3.57-3.06,8.65-9.67,9.55-14.01c3.15-0.22,6.21-1.13,8.98-2.65l0.68-2.01c-4.19-4.4-5.53-7.66-5.53-11.33
			c0.15-2.85,0.61-5.68,1.37-8.43l0.76-3.4c-0.01,0.03,3.49-13,5.13-19.28l21.49,60.93"/>
	</g>
	<path class="st1" d="M229.93,333.72L229.93,333.72c-53.44,0-96.76-43.32-96.76-96.76V140.2c0-53.44,43.32-96.76,96.76-96.76h0
		c53.44,0,96.76,43.32,96.76,96.76v96.76C326.69,290.4,283.37,333.72,229.93,333.72z"/>
	<path id="SVGID_x5F_1_x5F_" class="st2" d="M123.93,332.72V139.59c0-58.54,47.45-105.99,105.99-105.99h0
		c58.54,0,105.99,47.45,105.99,105.99v175.29"/>
	<text class="st0 st3 st4">	<textPath  xlink:href="#SVGID_x5F_1_x5F_" startOffset="2.7832%">
PHYSICAL BIOLOGY OF THE  CELL	</textPath>
</text>
	<path class="st5" d="M235.93,332.72c-9.21,2.15-12.97,8.81-11.87,14.53c1.1,5.73,5.76,10.99,8.57,16.52
		c2.81,5.53,3.45,12.02-2.66,16.56c-2.92,2.17-7.06,3.65-10.57,5.49c-13.12,6.89-16.05,19.42-6.55,28.09
		c3.75,3.43,9.35,6.58,9.55,10.64c0.17,3.47-3.75,6.52-7.83,9.06c-4.08,2.54-8.67,5.02-10.45,8.34c-1.78,3.31,3.94,5.28,6.62,8.38
		c2.43,2.81-4.68,5.68-7.02,8.52"/>
	<path class="st5" d="M224.86,332.72c9.21,2.15,12.97,8.81,11.87,14.53c-1.1,5.73-5.76,10.99-8.57,16.52
		c-2.81,5.53-3.45,12.02,2.66,16.56c2.92,2.17,7.06,3.65,10.57,5.49c13.12,6.89,16.05,19.42,6.55,28.09
		c-3.75,3.43-9.35,6.58-9.55,10.64c-0.17,3.47,3.75,6.52,7.83,9.06s8.67,5.02,10.45,8.34c1.78,3.31-3.94,5.28-6.62,8.38
		c-2.43,2.81,4.68,5.68,7.02,8.52"/>
	<path class="st5" d="M289.45,314.88c9.21,2.15,12.97,8.81,11.87,14.53s-5.76,10.99-8.57,16.52c-2.81,5.53-3.45,12.02,2.66,16.56
		c2.92,2.17,7.06,3.65,10.57,5.49c13.12,6.89,16.05,19.42,6.55,28.09c-3.75,3.43-9.35,6.58-9.55,10.64
		c-0.17,3.47,3.75,6.52,7.83,9.06c4.08,2.54,8.67,5.02,10.45,8.34c1.78,3.31-3.94,5.28-6.62,8.38c-2.43,2.81,4.68,5.68,7.02,8.52"/>
	<path class="st5" d="M170.4,314.88c-9.21,2.15-12.97,8.81-11.87,14.53s5.76,10.99,8.57,16.52c2.81,5.53,3.45,12.02-2.66,16.56
		c-2.92,2.17-7.06,3.65-10.57,5.49c-13.12,6.89-16.05,19.42-6.55,28.09c3.75,3.43,9.35,6.58,9.55,10.64
		c0.17,3.47-3.75,6.52-7.83,9.06c-4.08,2.54-8.67,5.02-10.45,8.34s3.94,5.28,6.62,8.38c2.43,2.81-4.68,5.68-7.02,8.52"/>
</g>
</svg>
